{"glyphs":{"0":{"ha":501,"x_min":0,"x_max":0,"o":"m 467 958 b 299 1139 467 1089 413 1139 l 190 1139 b 35 958 81 1139 35 1093 l 35 175 b 201 -6 35 46 88 -6 l 310 -6 b 467 175 421 -6 467 40 z m 282 175 b 250 140 282 153 265 140 b 218 175 235 140 218 153 l 218 958 b 251 994 218 982 236 994 b 282 958 267 994 282 982 z "},"1":{"ha":356,"x_min":0,"x_max":0,"o":"m 138 0 l 321 0 l 321 1131 l 168 1131 b 14 964 168 1049 115 965 l 14 850 l 138 850 z "},"2":{"ha":474,"x_min":0,"x_max":0,"o":"m 21 0 l 453 0 l 453 139 l 213 139 l 213 169 b 439 732 213 357 439 499 l 439 960 b 282 1139 439 1093 392 1139 l 171 1139 b 24 960 56 1139 24 1089 l 24 750 l 194 750 l 194 961 b 225 996 194 983 208 996 b 257 961 243 996 257 983 l 257 788 b 21 208 257 549 21 418 z "},"3":{"ha":500,"x_min":0,"x_max":0,"o":"m 219 958 b 250 994 219 982 235 994 b 281 958 265 994 281 982 l 281 693 b 251 658 281 672 265 658 l 150 658 l 150 510 b 249 511 151 510 247 511 b 281 476 264 511 281 499 l 281 175 b 250 139 281 151 265 139 b 219 175 235 139 219 151 l 219 403 l 35 403 l 35 175 b 203 -6 35 44 89 -6 l 297 -6 b 465 175 411 -6 465 44 l 465 410 b 356 586 465 522 432 574 b 465 764 432 600 465 650 l 465 958 b 297 1139 465 1089 411 1139 l 203 1139 b 35 958 89 1139 35 1089 l 35 778 l 219 778 z "},"4":{"ha":519,"x_min":0,"x_max":0,"o":"m 267 0 l 447 0 l 447 271 l 506 271 l 506 413 l 447 413 l 447 1118 l 179 1118 l 14 433 l 14 271 l 267 271 z m 176 413 l 267 944 l 267 413 z "},"5":{"ha":500,"x_min":0,"x_max":0,"o":"m 438 1131 l 35 1131 l 35 556 l 219 556 l 219 625 b 249 660 219 646 235 660 b 281 625 264 660 281 647 l 281 161 b 250 125 281 138 265 125 b 219 161 235 125 219 138 l 219 403 l 35 403 l 35 175 b 203 -6 35 44 89 -6 l 297 -6 b 465 175 411 -6 465 44 l 465 643 b 329 806 465 768 446 806 b 218 765 293 806 244 803 l 218 992 l 438 992 z "},"6":{"ha":500,"x_min":0,"x_max":0,"o":"m 219 958 b 250 994 219 982 235 994 b 281 958 265 994 281 982 l 281 758 l 465 758 l 465 958 b 297 1139 465 1089 411 1139 l 203 1139 b 35 958 89 1139 35 1089 l 35 175 b 203 -6 35 44 89 -6 l 297 -6 b 465 175 411 -6 465 44 l 465 522 b 329 685 465 647 446 685 b 218 644 293 685 244 682 z m 281 175 b 250 139 281 151 265 139 b 219 175 235 139 219 151 l 219 518 b 249 553 219 539 235 553 b 281 518 264 553 281 540 z "},"7":{"ha":397,"x_min":0,"x_max":0,"o":"m 383 976 l 383 1131 l 14 1131 l 14 992 l 208 992 l 38 0 l 224 0 z "},"8":{"ha":500,"x_min":0,"x_max":0,"o":"m 297 -6 b 465 175 411 -6 465 44 l 465 410 b 356 586 465 522 432 574 b 465 764 432 600 465 650 l 465 958 b 297 1139 465 1089 411 1139 l 203 1139 b 35 958 89 1139 35 1089 l 35 764 b 144 586 35 650 68 600 b 35 410 68 574 35 522 l 35 175 b 203 -6 35 44 89 -6 z m 249 511 b 281 476 264 511 281 499 l 281 175 b 250 139 281 151 265 139 b 219 175 235 139 219 151 l 219 476 b 249 511 219 497 233 510 z m 219 958 b 250 994 219 982 235 994 b 281 958 265 994 281 982 l 281 693 b 251 658 281 672 265 658 b 219 693 236 658 219 671 z "},"9":{"ha":500,"x_min":0,"x_max":0,"o":"m 281 175 b 250 139 281 151 265 139 b 219 175 235 139 219 151 l 219 403 l 35 403 l 35 175 b 203 -6 35 44 89 -6 l 297 -6 b 465 175 411 -6 465 44 l 465 958 b 297 1139 465 1089 411 1139 l 203 1139 b 35 958 89 1139 35 1089 l 35 639 b 171 476 35 514 54 476 b 282 517 207 476 256 479 z m 219 958 b 250 994 219 982 235 994 b 281 958 265 994 281 982 l 281 643 b 251 608 281 622 265 608 b 219 643 236 608 219 621 z "},"B":{"ha":540,"x_min":0,"x_max":0,"o":"m 494 410 b 385 586 494 522 461 574 b 494 764 461 600 494 650 l 494 950 b 326 1131 494 1081 440 1131 l 35 1131 l 35 0 l 326 0 b 494 181 440 0 494 50 z m 296 181 b 265 144 296 157 281 144 l 232 144 l 232 511 l 264 511 b 296 476 279 511 296 499 z m 296 693 b 264 658 296 671 279 658 l 232 658 l 232 986 l 265 986 b 296 950 281 986 296 974 z "},"C":{"ha":514,"x_min":0,"x_max":0,"o":"m 296 168 b 264 133 296 146 279 133 b 232 168 249 133 232 146 l 232 965 b 265 1001 232 989 250 1001 b 296 965 281 1001 296 989 l 296 764 l 486 764 l 486 965 b 318 1146 486 1096 433 1146 l 190 1146 b 35 965 81 1146 35 1100 l 35 168 b 201 -12 35 39 88 -12 l 331 -12 b 486 168 440 -12 486 33 l 486 410 l 296 410 z "},"D":{"ha":535,"x_min":0,"x_max":0,"o":"m 494 950 b 326 1131 494 1081 440 1131 l 35 1131 l 35 0 l 338 0 b 494 181 449 0 494 46 z m 296 181 b 264 146 296 158 279 146 l 232 146 l 232 986 l 265 986 b 296 950 281 986 296 974 z "},"E":{"ha":401,"x_min":0,"x_max":0,"o":"m 381 153 l 232 153 l 232 499 l 367 499 l 367 651 l 232 651 l 232 978 l 381 978 l 381 1131 l 35 1131 l 35 0 l 381 0 z "},"F":{"ha":394,"x_min":0,"x_max":0,"o":"m 232 499 l 367 499 l 367 651 l 232 651 l 232 978 l 381 978 l 381 1131 l 35 1131 l 35 0 l 232 0 z "},"G":{"ha":522,"x_min":0,"x_max":0,"o":"m 494 558 l 261 558 l 261 404 l 296 404 l 296 168 b 264 133 296 146 279 133 b 232 168 249 133 232 146 l 232 965 b 265 1001 232 989 250 1001 b 296 965 281 1001 296 989 l 296 764 l 486 764 l 486 965 b 318 1146 486 1096 433 1146 l 190 1146 b 35 965 81 1146 35 1100 l 35 168 b 201 -12 35 39 88 -12 l 338 -12 b 494 168 449 -12 494 33 z "},"H":{"ha":529,"x_min":0,"x_max":0,"o":"m 296 0 l 494 0 l 494 1131 l 296 1131 l 296 651 l 232 651 l 232 1131 l 35 1131 l 35 0 l 232 0 l 232 499 l 296 499 z "},"I":{"ha":267,"x_min":0,"x_max":0,"o":"m 35 0 l 232 0 l 232 1131 l 35 1131 z "},"J":{"ha":303,"x_min":0,"x_max":0,"o":"m 69 182 b 14 132 69 139 29 132 l 14 0 b 111 -8 46 -7 79 -8 b 268 186 208 -8 268 51 l 268 1131 l 69 1131 z "},"K":{"ha":561,"x_min":0,"x_max":0,"o":"m 511 1131 l 318 1131 l 232 646 l 232 1131 l 35 1131 l 35 0 l 232 0 l 232 533 l 351 0 l 554 0 l 408 585 z "},"L":{"ha":389,"x_min":0,"x_max":0,"o":"m 35 0 l 375 0 l 375 153 l 232 153 l 232 1131 l 35 1131 z "},"M":{"ha":707,"x_min":0,"x_max":0,"o":"m 490 664 l 490 0 l 672 0 l 672 1131 l 444 1131 l 353 582 l 263 1131 l 35 1131 l 35 0 l 217 0 l 217 664 l 311 0 l 397 0 z "},"N":{"ha":578,"x_min":0,"x_max":0,"o":"m 331 0 l 543 0 l 543 1131 l 360 1131 l 360 524 l 239 1131 l 35 1131 l 35 0 l 213 0 l 213 604 z "},"O":{"ha":529,"x_min":0,"x_max":0,"o":"m 494 965 b 326 1146 494 1096 440 1146 l 190 1146 b 35 965 81 1146 35 1100 l 35 168 b 201 -12 35 39 88 -12 l 338 -12 b 494 168 449 -12 494 33 z m 296 168 b 264 133 296 146 279 133 b 232 168 249 133 232 146 l 232 965 b 265 1001 232 989 250 1001 b 296 965 281 1001 296 989 z "},"P":{"ha":522,"x_min":0,"x_max":0,"o":"m 494 589 l 494 950 b 326 1131 494 1081 440 1131 l 35 1131 l 35 0 l 232 0 l 232 419 b 494 589 444 419 494 443 z m 296 601 b 264 567 296 579 279 567 l 232 567 l 232 986 l 265 986 b 296 950 281 986 296 974 z "},"Q":{"ha":529,"x_min":0,"x_max":0,"o":"m 494 965 b 326 1146 494 1096 440 1146 l 190 1146 b 35 965 81 1146 35 1100 l 35 168 b 201 -12 35 39 88 -12 l 208 -12 l 208 -90 l 331 -90 l 331 -12 l 338 -12 b 494 168 449 -12 494 33 z m 296 168 b 264 133 296 146 279 133 b 232 168 249 133 232 146 l 232 965 b 265 1001 232 989 250 1001 b 296 965 281 1001 296 989 z "},"R":{"ha":533,"x_min":0,"x_max":0,"o":"m 494 346 b 385 522 494 458 461 510 b 494 700 461 536 494 586 l 494 950 b 326 1131 494 1081 440 1131 l 35 1131 l 35 0 l 232 0 l 232 447 l 264 447 b 296 413 279 447 296 435 l 296 0 l 494 0 z m 296 629 b 264 594 296 607 279 594 l 232 594 l 232 986 l 265 986 b 296 950 281 986 296 974 z "},"S":{"ha":519,"x_min":0,"x_max":0,"o":"m 293 167 b 261 132 293 144 279 132 b 231 167 243 132 231 144 l 231 404 l 42 404 l 42 168 b 201 -12 42 39 88 -12 l 328 -12 b 485 168 438 -12 485 35 l 485 403 b 231 788 485 613 231 660 l 231 968 b 263 1003 231 990 244 1003 b 293 968 279 1003 293 990 l 293 763 l 478 763 l 478 967 b 317 1146 478 1096 432 1146 l 192 1146 b 35 967 82 1146 35 1100 l 35 754 b 293 364 35 567 293 496 z "},"T":{"ha":443,"x_min":0,"x_max":0,"o":"m 122 0 l 321 0 l 321 978 l 429 978 l 429 1131 l 14 1131 l 14 978 l 122 978 z "},"U":{"ha":529,"x_min":0,"x_max":0,"o":"m 296 168 b 264 133 296 146 279 133 b 232 168 249 133 232 146 l 232 1131 l 35 1131 l 35 168 b 201 -12 35 39 88 -12 l 338 -12 b 494 168 449 -12 494 33 l 494 1131 l 296 1131 z "},"V":{"ha":526,"x_min":0,"x_max":0,"o":"m 119 0 l 411 0 l 519 1131 l 317 1131 l 264 292 l 211 1131 l 7 1131 z "},"W":{"ha":811,"x_min":0,"x_max":0,"o":"m 804 1131 l 614 1131 l 575 313 l 522 1131 l 289 1131 l 236 313 l 197 1131 l 7 1131 l 92 0 l 346 0 l 406 838 l 465 0 l 719 0 z "},"X":{"ha":558,"x_min":0,"x_max":0,"o":"m 529 1131 l 336 1131 l 279 715 l 222 1131 l 28 1131 l 111 585 l 14 0 l 217 0 l 279 453 l 342 0 l 544 0 l 447 585 z "},"Y":{"ha":510,"x_min":0,"x_max":0,"o":"m 503 1131 l 317 1131 l 256 622 l 194 1131 l 7 1131 l 157 333 l 157 0 l 354 0 l 354 332 z "},"Z":{"ha":422,"x_min":0,"x_max":0,"o":"m 21 0 l 401 0 l 401 139 l 213 139 l 401 976 l 401 1131 l 28 1131 l 28 992 l 210 992 l 21 156 z "},"a":{"ha":486,"x_min":0,"x_max":0,"o":"m 451 0 l 451 728 b 301 907 451 861 411 907 l 196 907 b 36 728 82 907 36 857 l 36 601 l 211 601 l 211 743 b 239 778 211 765 224 778 b 268 743 254 778 268 765 l 268 549 b 28 368 139 529 28 517 l 28 157 b 163 -12 28 18 86 -12 b 271 29 194 -12 242 0 l 285 0 z m 211 385 b 268 421 211 408 233 419 l 268 161 b 239 125 268 138 254 125 b 211 161 224 125 211 138 z "},"b":{"ha":492,"x_min":0,"x_max":0,"o":"m 457 743 b 322 913 457 882 399 913 b 217 868 290 913 246 897 l 217 1131 l 35 1131 l 35 0 l 201 0 l 217 36 b 322 -8 246 7 290 -8 b 457 163 399 -8 457 22 z m 217 739 b 246 775 217 763 231 775 b 274 739 261 775 274 763 l 274 165 b 246 131 274 142 261 131 b 217 165 231 131 217 142 z "},"c":{"ha":478,"x_min":0,"x_max":0,"o":"m 274 161 b 244 125 274 138 260 125 b 217 161 229 125 217 138 l 217 743 b 246 778 217 765 231 778 b 274 743 261 778 274 765 l 274 596 l 450 596 l 450 728 b 289 907 450 857 404 907 l 190 907 b 35 728 81 907 35 861 l 35 176 b 201 -4 35 46 88 -4 l 301 -4 b 450 176 411 -4 450 42 l 450 335 l 274 335 z "},"d":{"ha":492,"x_min":0,"x_max":0,"o":"m 35 163 b 168 -8 35 22 92 -8 b 274 36 200 -8 244 7 l 289 0 l 457 0 l 457 1131 l 274 1131 l 274 868 b 168 913 244 897 200 913 b 35 743 92 913 35 882 z m 274 165 b 244 131 274 142 260 131 b 217 165 229 131 217 142 l 217 739 b 244 775 217 763 229 775 b 274 739 260 775 274 763 z "},"e":{"ha":483,"x_min":0,"x_max":0,"o":"m 272 161 b 243 125 272 138 258 125 b 215 161 228 125 215 138 l 215 414 l 449 414 l 449 728 b 281 907 449 857 394 907 l 190 907 b 35 728 81 907 35 861 l 35 176 b 201 -4 35 46 88 -4 l 300 -4 b 449 176 410 -4 449 42 l 449 335 l 272 335 z m 215 743 b 244 778 215 765 229 778 b 272 743 260 778 272 765 l 272 529 l 215 529 z "},"f":{"ha":322,"x_min":0,"x_max":0,"o":"m 14 775 l 60 775 l 60 0 l 243 0 l 243 775 l 306 775 l 306 900 l 243 900 l 243 969 b 271 1006 243 993 256 1006 l 308 1006 l 308 1131 l 197 1131 b 60 967 106 1131 60 1103 l 60 900 l 14 900 z "},"g":{"ha":492,"x_min":0,"x_max":0,"o":"m 274 -43 b 244 -78 274 -65 260 -78 b 217 -60 226 -78 217 -74 l 49 -60 b 192 -208 49 -157 76 -208 l 310 -208 b 457 -28 419 -208 457 -162 l 457 900 l 289 900 l 274 863 b 168 907 244 892 200 907 b 35 738 92 907 35 876 l 35 157 b 168 -12 35 18 92 -12 b 274 32 200 -12 244 3 z m 274 161 b 244 125 274 138 260 125 b 217 161 229 125 217 138 l 217 735 b 244 769 217 758 229 769 b 274 735 260 769 274 758 z "},"h":{"ha":492,"x_min":0,"x_max":0,"o":"m 217 739 b 246 775 217 763 231 775 b 274 739 261 775 274 763 l 274 0 l 457 0 l 457 743 b 322 913 457 882 399 913 b 217 868 290 913 246 897 l 217 1131 l 35 1131 l 35 0 l 217 0 z "},"i":{"ha":251,"x_min":0,"x_max":0,"o":"m 35 0 l 217 0 l 217 900 l 35 900 z m 217 1131 l 35 1131 l 35 963 l 217 963 z "},"j":{"ha":251,"x_min":0,"x_max":0,"o":"m 35 -207 l 217 -207 l 217 900 l 35 900 z m 217 1131 l 35 1131 l 35 963 l 217 963 z "},"k":{"ha":483,"x_min":0,"x_max":0,"o":"m 35 0 l 217 0 l 217 428 l 292 0 l 476 0 l 381 475 l 460 900 l 283 900 l 217 515 l 217 1131 l 35 1131 z "},"l":{"ha":251,"x_min":0,"x_max":0,"o":"m 35 0 l 217 0 l 217 1131 l 35 1131 z "},"m":{"ha":732,"x_min":0,"x_max":0,"o":"m 217 739 b 246 775 217 763 231 775 b 274 739 261 775 274 763 l 274 0 l 457 0 l 457 743 b 486 775 458 763 471 775 b 514 739 501 775 514 763 l 514 0 l 697 0 l 697 743 b 563 913 697 882 639 913 b 436 853 531 913 472 900 b 322 913 413 899 372 913 b 214 871 290 913 243 900 l 199 900 l 35 900 l 35 0 l 217 0 z "},"n":{"ha":492,"x_min":0,"x_max":0,"o":"m 217 739 b 246 775 217 763 231 775 b 274 739 261 775 274 763 l 274 0 l 457 0 l 457 743 b 322 913 457 882 399 913 b 214 871 290 913 243 900 l 199 900 l 35 900 l 35 0 l 217 0 z "},"o":{"ha":492,"x_min":0,"x_max":0,"o":"m 457 728 b 289 907 457 857 404 907 l 190 907 b 35 728 81 907 35 861 l 35 176 b 201 -4 35 46 88 -4 l 301 -4 b 457 176 411 -4 457 42 z m 274 161 b 244 125 274 138 260 125 b 217 161 229 125 217 138 l 217 743 b 246 778 217 765 231 778 b 274 743 261 778 274 765 z "},"p":{"ha":492,"x_min":0,"x_max":0,"o":"m 457 738 b 322 907 457 876 399 907 b 217 863 290 907 246 892 l 201 900 l 35 900 l 35 -208 l 217 -208 l 217 32 b 322 -12 246 3 290 -12 b 457 157 399 -12 457 18 z m 217 735 b 246 769 217 758 231 769 b 274 735 261 769 274 758 l 274 161 b 246 125 274 138 261 125 b 217 161 231 125 217 138 z "},"q":{"ha":492,"x_min":0,"x_max":0,"o":"m 35 157 b 168 -12 35 18 92 -12 b 274 32 200 -12 244 3 l 274 -208 l 457 -208 l 457 900 l 289 900 l 274 863 b 168 907 244 892 200 907 b 35 738 92 907 35 876 z m 274 161 b 244 125 274 138 260 125 b 217 161 229 125 217 138 l 217 735 b 244 769 217 758 229 769 b 274 735 260 769 274 758 z "},"r":{"ha":471,"x_min":0,"x_max":0,"o":"m 217 739 b 246 775 217 763 231 775 b 274 739 261 775 274 763 l 274 535 l 450 535 l 450 743 b 322 913 450 882 399 913 b 214 871 290 913 253 900 l 200 900 l 35 900 l 35 0 l 217 0 z "},"s":{"ha":464,"x_min":0,"x_max":0,"o":"m 260 157 b 231 122 260 135 246 122 b 203 157 215 122 203 135 l 203 326 l 28 326 l 28 172 b 188 -8 28 43 74 -8 l 286 -8 b 443 172 396 -8 443 39 l 443 308 b 203 640 443 518 203 513 l 203 743 b 232 778 203 765 217 778 b 260 743 247 778 260 765 l 260 601 l 436 601 l 436 728 b 275 907 436 857 390 907 l 178 907 b 21 728 68 907 21 861 l 21 607 b 260 286 21 419 260 418 z "},"t":{"ha":322,"x_min":0,"x_max":0,"o":"m 14 775 l 60 775 l 60 164 b 167 0 60 58 75 0 l 308 0 l 308 125 l 271 125 b 243 161 256 125 243 138 l 243 775 l 306 775 l 306 900 l 243 900 l 243 1021 l 60 1021 l 60 900 l 14 900 z "},"u":{"ha":492,"x_min":0,"x_max":0,"o":"m 274 161 b 244 125 274 138 260 125 b 217 161 229 125 217 138 l 217 900 l 35 900 l 35 157 b 168 -12 35 18 92 -12 b 276 29 200 -12 249 0 l 290 0 l 457 0 l 457 900 l 274 900 z "},"v":{"ha":457,"x_min":0,"x_max":0,"o":"m 113 0 l 349 0 l 450 900 l 275 900 l 229 208 l 183 900 l 7 900 z "},"w":{"ha":725,"x_min":0,"x_max":0,"o":"m 718 900 l 543 900 l 507 310 l 472 900 l 254 900 l 218 310 l 183 900 l 7 900 l 113 0 l 326 0 l 363 644 l 399 0 l 613 0 z "},"x":{"ha":488,"x_min":0,"x_max":0,"o":"m 296 0 l 481 0 l 392 475 l 456 900 l 279 900 l 244 600 l 208 900 l 32 900 l 96 475 l 7 0 l 192 0 l 244 361 z "},"y":{"ha":457,"x_min":0,"x_max":0,"o":"m 113 0 l 193 0 l 172 -208 l 325 -208 l 450 900 l 275 900 l 229 224 l 183 900 l 7 900 z "},"z":{"ha":381,"x_min":0,"x_max":0,"o":"m 14 0 l 367 0 l 367 125 l 192 125 l 367 760 l 367 900 l 26 900 l 26 775 l 189 775 l 14 142 z "}," ":{"ha":244,"x_min":0,"x_max":0,"o":""},"[":{"ha":313,"x_min":0,"x_max":0,"o":"m 35 0 l 292 0 l 292 153 l 204 153 l 204 978 l 292 978 l 292 1131 l 35 1131 z "},"]":{"ha":313,"x_min":0,"x_max":0,"o":"m 278 1131 l 21 1131 l 21 978 l 108 978 l 108 153 l 21 153 l 21 0 l 278 0 z "},":":{"ha":251,"x_min":0,"x_max":0,"o":"m 217 168 l 35 168 l 35 0 l 217 0 z m 217 654 l 35 654 l 35 486 l 217 486 z "},".":{"ha":251,"x_min":0,"x_max":0,"o":"m 217 168 l 35 168 l 35 0 l 217 0 z "},"ﬁ":{"ha":574,"x_min":0,"x_max":0,"o":"m 14 775 l 60 775 l 60 0 l 243 0 l 243 775 l 357 775 l 357 0 l 539 0 l 539 900 l 243 900 l 243 969 b 271 1006 243 993 256 1006 l 308 1006 l 308 1131 l 197 1131 b 60 967 106 1131 60 1103 l 60 900 l 14 900 z m 539 1131 l 357 1131 l 357 963 l 539 963 z "},"ﬂ":{"ha":574,"x_min":0,"x_max":0,"o":"m 14 775 l 60 775 l 60 0 l 243 0 l 243 775 l 306 775 l 306 900 l 243 900 l 243 969 b 271 1006 243 993 256 1006 l 308 1006 l 308 1131 l 197 1131 b 60 967 106 1131 60 1103 l 60 900 l 14 900 z m 357 0 l 539 0 l 539 1131 l 357 1131 z "},"ª":{"ha":492,"x_min":0,"x_max":0,"o":"m 35 163 b 168 -8 35 22 92 -8 b 274 36 200 -8 244 7 l 289 0 l 457 0 l 457 900 l 274 900 l 274 868 b 168 913 244 897 200 913 b 35 743 92 913 35 882 z m 274 165 b 244 131 274 142 260 131 b 217 165 229 131 217 142 l 217 739 b 244 775 217 763 229 775 b 274 739 260 775 274 763 z "},"ı":{"ha":251,"x_min":0,"x_max":0,"o":"m 35 0 l 217 0 l 217 900 l 35 900 z "},"þ":{"ha":492,"x_min":0,"x_max":0,"o":"m 457 743 b 322 913 457 882 399 913 b 217 868 290 913 246 897 l 217 1131 l 35 1131 l 35 -208 l 217 -208 l 217 36 b 322 -8 246 7 290 -8 b 457 163 399 -8 457 22 z m 217 739 b 246 775 217 763 231 775 b 274 739 261 775 274 763 l 274 165 b 246 131 274 142 261 131 b 217 165 231 131 217 142 z "},"Þ":{"ha":522,"x_min":0,"x_max":0,"o":"m 232 1131 l 35 1131 l 35 0 l 232 0 l 232 207 b 494 376 444 207 494 231 l 494 738 b 326 918 494 868 440 918 l 232 918 z m 296 389 b 264 354 296 367 279 354 l 232 354 l 232 774 l 265 774 b 296 738 281 774 296 761 z "},"·":{"ha":251,"x_min":0,"x_max":0,"o":"m 217 654 l 35 654 l 35 486 l 217 486 z "},"œ":{"ha":725,"x_min":0,"x_max":0,"o":"m 514 161 b 485 125 514 138 500 125 b 457 157 469 125 458 136 l 457 414 l 690 414 l 690 728 b 522 907 690 857 636 907 l 432 907 b 361 883 404 907 381 904 b 289 907 340 904 317 907 l 190 907 b 35 728 81 907 35 861 l 35 176 b 201 -4 35 46 88 -4 l 301 -4 b 371 18 328 -4 351 -1 b 443 -4 392 -1 415 -4 l 542 -4 b 690 176 651 -4 690 42 l 690 335 l 514 335 z m 274 161 b 244 125 274 138 260 125 b 217 161 229 125 217 138 l 217 743 b 246 778 217 765 231 778 b 274 743 261 778 274 765 z m 457 743 b 486 778 457 765 471 778 b 514 743 501 778 514 765 l 514 529 l 457 529 z "},"Œ":{"ha":663,"x_min":0,"x_max":0,"o":"m 642 153 l 494 153 l 494 499 l 628 499 l 628 651 l 494 651 l 494 978 l 642 978 l 642 1131 l 190 1131 b 35 950 81 1131 35 1085 l 35 181 b 201 0 35 51 88 0 l 642 0 z m 296 181 b 264 146 296 158 279 146 b 232 181 249 146 232 158 l 232 950 b 265 986 232 974 250 986 b 296 950 281 986 296 974 z "},",":{"ha":251,"x_min":0,"x_max":0,"o":"m 217 168 l 35 168 l 35 0 l 111 0 l 63 -194 l 217 0 z "},";":{"ha":251,"x_min":0,"x_max":0,"o":"m 217 654 l 35 654 l 35 486 l 217 486 z m 217 168 l 35 168 l 35 0 l 111 0 l 63 -194 l 217 0 z "},"‚":{"ha":251,"x_min":0,"x_max":0,"o":"m 217 168 l 35 168 l 35 0 l 111 0 l 63 -194 l 217 0 z "},"„":{"ha":468,"x_min":0,"x_max":0,"o":"m 217 168 l 35 168 l 35 0 l 111 0 l 63 -194 l 217 0 z m 433 168 l 251 168 l 251 0 l 328 0 l 279 -194 l 433 0 z "},"”":{"ha":468,"x_min":0,"x_max":0,"o":"m 217 1131 l 35 1131 l 35 963 l 111 963 l 63 768 l 217 963 z m 433 1131 l 251 1131 l 251 963 l 328 963 l 279 768 l 433 963 z "},"“":{"ha":468,"x_min":0,"x_max":0,"o":"m 251 768 l 433 768 l 433 936 l 357 936 l 406 1131 l 251 936 z m 35 768 l 217 768 l 217 936 l 140 936 l 189 1131 l 35 936 z "},"‘":{"ha":251,"x_min":0,"x_max":0,"o":"m 35 768 l 217 768 l 217 936 l 140 936 l 189 1131 l 35 936 z "},"’":{"ha":251,"x_min":0,"x_max":0,"o":"m 217 1131 l 35 1131 l 35 963 l 111 963 l 63 768 l 217 963 z "},"":{"ha":1215,"x_min":0,"x_max":0,"o":"m 1015 168 l 792 -8 l 854 -89 l 638 -44 l 638 -278 l 1186 -278 l 1186 692 l 26 692 l 28 -278 l 596 -278 l 596 -44 l 367 -89 l 435 -8 l 194 168 l 301 188 l 210 317 l 353 261 l 367 368 l 510 225 l 458 497 l 528 456 l 619 604 l 701 456 l 789 497 l 701 225 l 854 368 l 871 261 l 1015 317 l 917 188 z m 608 919 b 565 972 604 957 588 972 l 510 972 l 510 736 l 565 736 b 608 782 588 736 604 749 z m 376 736 l 376 972 l 344 972 l 344 811 l 347 790 l 340 810 l 301 972 l 263 972 l 263 736 l 294 736 l 294 886 l 290 906 l 297 888 l 335 736 z m 247 736 l 219 972 l 172 972 l 140 736 l 172 736 l 176 785 l 210 785 l 219 736 z m 496 736 l 467 972 l 421 972 l 389 736 l 421 736 l 426 785 l 460 785 l 467 736 z m 726 736 l 694 972 l 650 972 l 619 736 l 650 736 l 654 785 l 688 785 l 694 736 z m 1085 919 b 1042 972 1085 957 1065 972 l 989 972 l 989 736 l 1017 736 l 1017 835 l 1042 835 b 1085 882 1065 835 1085 849 z m 133 813 l 100 813 l 100 782 b 83 760 96 767 90 760 b 65 782 75 760 69 767 l 65 919 b 83 943 68 935 74 943 b 100 919 92 943 97 935 l 100 886 l 133 886 l 133 924 b 83 974 133 961 113 974 b 33 924 56 974 38 961 l 33 781 b 83 735 38 743 56 735 b 133 781 113 735 133 743 z m 976 972 l 942 972 l 919 868 l 900 972 l 867 972 l 901 815 l 901 736 l 939 736 l 939 815 z m 1176 736 l 1176 765 l 1132 765 l 1132 836 l 1174 836 l 1174 869 l 1132 869 l 1132 938 l 1176 938 l 1176 972 l 1101 972 l 1101 736 z m 865 938 l 865 972 l 776 972 l 776 938 l 803 938 l 803 736 l 835 736 l 835 938 z m 575 788 b 558 763 575 772 569 763 l 542 763 l 542 938 l 558 938 b 575 918 569 938 575 935 z m 1051 885 b 1035 861 1051 869 1046 861 l 1017 861 l 1017 942 l 1035 942 b 1051 919 1046 942 1051 935 z m 208 818 l 181 818 l 194 922 l 194 938 b 197 922 196 936 197 931 z m 458 818 l 432 818 l 442 922 l 442 938 b 444 922 443 936 444 931 z m 685 818 l 657 818 l 671 922 l 671 938 b 672 922 672 936 672 931 z "},"µ":{"ha":2519,"x_min":0,"x_max":0,"o":"m 2457 736 l 2443 736 b 2392 663 2428 699 2414 663 b 2381 686 2385 663 2381 671 b 2447 1058 2381 735 2436 992 b 2389 1031 2431 1047 2415 1031 b 2343 1044 2371 1031 2358 1038 l 2333 1008 b 2289 1049 2324 1035 2310 1049 b 2103 819 2218 1049 2103 901 b 2203 642 2103 757 2132 642 b 2293 728 2232 642 2254 654 b 2376 643 2304 668 2339 643 b 2457 736 2426 643 2446 693 z m 2078 794 l 2063 794 b 1982 663 2051 753 2017 663 b 1969 686 1972 663 1969 674 b 2065 1221 1969 738 2054 1156 b 2006 1193 2047 1210 2032 1193 b 1960 1207 1989 1193 1975 1200 b 1919 1015 1957 1197 1939 1110 b 1878 1049 1910 1038 1896 1049 b 1692 819 1807 1049 1692 901 b 1792 642 1692 757 1721 642 b 1882 729 1822 642 1840 654 b 1971 644 1894 669 1933 644 b 2078 794 2040 644 2071 769 z m 2075 674 l 2072 674 b 1940 564 2057 617 1997 571 b 1878 621 1933 593 1907 621 b 1846 593 1865 621 1846 608 b 1922 546 1846 564 1879 546 b 1932 547 1926 546 1929 546 b 1821 478 1928 490 1868 478 b 1721 549 1771 478 1721 489 b 1781 611 1721 581 1751 606 l 1781 617 b 1707 539 1742 615 1707 574 b 1818 453 1707 472 1769 453 b 1942 547 1885 453 1940 499 b 2075 674 1999 557 2063 592 z m 1674 736 l 1660 736 b 1608 663 1644 699 1631 663 b 1597 686 1601 663 1597 671 b 1664 1058 1597 735 1653 992 b 1606 1031 1647 1047 1632 1031 b 1560 1044 1588 1031 1575 1038 l 1550 1008 b 1506 1049 1540 1035 1526 1049 b 1319 819 1435 1049 1319 901 b 1419 642 1319 757 1349 642 b 1510 728 1449 642 1471 654 b 1593 643 1521 668 1556 643 b 1674 736 1643 643 1663 693 z m 2492 242 l 2383 253 l 2407 326 l 2264 286 l 2408 429 l 2340 429 l 2340 553 l 2231 489 l 2201 538 l 2143 350 l 2100 486 l 2057 424 l 1985 506 l 2001 394 l 1926 417 l 2019 228 l 1950 200 l 2108 151 b 2003 -28 2088 83 2047 21 b 1890 124 1938 0 1890 56 b 1974 254 1890 179 1917 238 l 1974 260 b 1881 129 1914 249 1881 182 b 1992 -40 1881 47 1926 -8 b 1818 -135 1935 -97 1869 -135 b 1718 18 1761 -135 1718 -92 b 1849 167 1779 25 1849 107 b 1825 201 1849 183 1842 201 b 1707 32 1754 201 1707 94 l 1707 31 b 1697 29 1704 29 1701 29 b 1661 60 1676 29 1661 39 b 1678 175 1661 61 1667 113 b 1856 329 1754 182 1856 244 b 1786 422 1856 396 1824 422 b 1563 207 1675 422 1563 279 b 1697 15 1563 78 1631 15 b 1707 17 1701 15 1706 15 b 1810 -151 1707 -106 1750 -151 b 2008 -47 1872 -151 1946 -110 b 2101 -64 2038 -58 2068 -64 b 2228 25 2154 -64 2217 -32 l 2222 25 b 2094 -47 2200 -21 2165 -47 b 2021 -35 2068 -47 2044 -43 b 2135 138 2069 14 2107 72 l 2257 39 l 2244 110 l 2443 147 l 2388 192 z m 1651 610 l 1638 617 b 1492 515 1624 544 1551 515 l 1486 515 b 1490 540 1489 522 1490 531 b 1392 624 1490 590 1439 624 b 1333 603 1371 624 1349 618 l 1339 601 b 1394 615 1356 611 1376 615 b 1481 539 1440 615 1481 582 b 1476 515 1481 529 1479 522 b 1296 644 1407 519 1296 558 b 1303 682 1296 656 1299 668 l 1297 688 b 1283 640 1285 675 1283 656 b 1461 496 1283 543 1404 507 b 1401 478 1446 483 1424 478 b 1269 547 1342 478 1301 510 l 1268 546 b 1406 471 1294 494 1351 471 b 1472 493 1432 471 1457 478 l 1488 493 b 1651 610 1565 493 1640 549 z m 1529 58 b 1503 139 1529 90 1518 117 b 1525 246 1518 176 1525 214 b 1421 422 1525 301 1492 422 b 1339 354 1393 422 1372 411 b 1193 561 1317 483 1193 413 b 1263 889 1193 665 1263 756 b 1175 1049 1263 967 1233 1049 b 1079 968 1128 1049 1101 999 b 997 1047 1072 1011 1049 1047 b 908 956 940 1047 922 999 l 922 956 b 974 1029 938 993 951 1029 b 986 1006 983 1029 986 1018 b 928 639 986 954 939 707 b 982 656 944 650 956 656 b 1028 640 1000 656 1013 647 b 1081 925 1032 660 1074 872 b 1165 1032 1107 990 1144 1032 b 1178 1001 1174 1032 1178 1022 b 1114 692 1178 900 1114 790 b 1253 381 1114 435 1253 504 b 1151 -192 1253 329 1163 -126 b 1210 -164 1168 -181 1183 -164 b 1256 -178 1228 -164 1240 -171 b 1344 294 1261 -156 1344 236 b 1404 404 1344 372 1388 404 b 1421 390 1415 404 1421 394 b 1400 197 1421 360 1411 264 b 1322 89 1375 190 1322 161 b 1376 15 1322 51 1333 15 b 1499 126 1432 15 1472 69 b 1518 64 1510 108 1518 88 b 1394 -93 1518 3 1467 -93 b 1354 -56 1374 -93 1354 -79 b 1394 -24 1354 -35 1378 -24 l 1394 -18 b 1382 -17 1392 -17 1388 -17 b 1343 -56 1361 -17 1343 -35 b 1399 -104 1343 -87 1367 -104 b 1529 58 1481 -104 1529 -14 z m 882 736 l 869 736 b 818 663 854 699 840 663 b 806 686 810 663 806 671 b 874 1058 806 735 863 993 b 814 1031 856 1047 840 1031 b 768 1044 797 1031 783 1038 l 758 1008 b 715 1049 749 1035 735 1049 b 529 819 644 1049 529 901 b 628 642 529 757 557 642 b 718 728 657 642 681 654 b 801 643 729 668 764 643 b 882 736 851 643 871 693 z m 1100 439 b 1017 528 1100 490 1065 528 b 885 482 983 528 929 482 b 849 507 869 482 849 489 b 901 544 849 535 881 544 l 983 535 b 1036 576 1004 535 1036 544 b 976 625 1036 608 1008 625 b 924 590 956 625 924 613 b 958 564 924 574 940 564 b 989 572 969 564 979 568 l 986 582 b 957 574 978 576 968 574 b 935 592 942 574 935 579 b 975 617 935 608 957 617 b 1026 575 1001 617 1026 603 b 982 543 1026 549 1003 543 l 901 551 b 840 507 879 551 840 540 b 888 472 840 490 854 472 b 1026 513 961 472 992 513 b 1092 444 1047 513 1082 499 l 1092 440 z m 499 821 b 418 932 499 881 468 932 b 304 793 349 932 304 853 b 346 726 304 765 311 726 b 411 828 383 726 411 789 b 408 850 411 832 413 840 l 397 850 b 401 828 399 840 401 833 b 346 738 401 796 383 738 b 314 789 319 738 314 772 b 422 921 314 849 356 921 b 471 842 463 921 471 876 b 397 683 471 782 442 721 b 325 703 376 696 353 703 b 279 688 314 703 289 697 l 279 682 b 328 692 283 686 311 692 b 389 675 349 692 371 688 b 301 644 361 654 332 644 b 238 710 296 644 238 650 b 276 914 238 763 258 850 b 278 919 276 918 278 918 b 485 1164 378 957 485 1060 b 429 1258 485 1203 478 1258 b 139 939 344 1258 199 1072 b 97 1028 110 960 97 990 b 233 1196 97 1106 157 1196 b 250 1194 240 1196 246 1196 l 250 1203 b 228 1206 240 1204 233 1206 b 86 1025 144 1206 86 1108 b 132 924 86 982 100 946 b 114 849 119 892 114 867 b 304 632 114 714 197 632 b 403 661 342 632 374 643 b 418 611 413 649 418 632 b 354 531 418 572 389 546 b 231 597 332 568 271 597 b 158 556 207 597 158 588 b 278 496 158 508 243 496 b 346 507 300 496 324 497 b 347 499 347 506 347 503 b 288 449 347 467 306 449 l 283 442 l 290 442 b 361 504 322 442 361 467 b 360 511 361 507 361 510 b 436 608 403 529 436 560 b 414 668 436 633 429 653 b 499 821 465 706 499 761 z m 1139 -35 b 1075 53 1139 14 1113 43 l 1074 76 b 1135 432 1067 165 1117 338 b 1075 404 1117 421 1101 404 b 1029 418 1058 404 1044 411 b 899 43 1001 301 971 43 b 882 72 888 43 882 53 b 944 290 882 140 944 244 b 861 422 944 358 918 422 b 775 365 815 422 786 388 b 749 418 771 386 764 408 l 749 415 b 769 350 761 403 769 376 b 714 269 769 313 746 285 b 710 335 711 293 710 314 b 792 526 710 407 725 493 l 792 536 b 669 453 746 529 686 472 b 588 268 621 396 603 331 b 532 317 564 278 543 293 b 596 418 564 338 596 379 b 565 453 596 436 586 453 b 508 368 543 453 508 419 b 518 319 508 349 511 332 b 493 314 511 315 503 314 b 413 388 439 314 413 339 b 544 526 413 458 475 526 b 632 453 593 526 626 497 b 794 564 669 504 732 549 l 794 571 b 767 568 785 569 776 568 b 590 613 722 568 701 613 b 399 408 482 613 399 510 b 497 304 399 339 432 304 b 522 311 503 304 511 307 b 585 256 535 286 556 268 b 450 29 563 151 528 29 b 390 79 426 29 397 51 b 419 71 400 75 410 71 b 492 165 465 71 492 119 b 447 217 492 189 479 217 b 371 119 401 217 371 168 b 513 6 371 35 442 6 b 715 256 646 6 715 85 b 776 349 750 272 776 303 b 835 401 779 358 806 401 b 850 361 844 401 850 393 b 788 140 850 310 788 208 b 867 15 788 69 821 15 b 964 88 913 15 943 47 b 968 46 964 76 964 61 l 968 42 b 889 -29 929 25 904 -1 b 867 -28 885 -28 876 -28 b 785 -103 844 -28 785 -40 b 903 -197 785 -162 847 -197 b 1086 -60 985 -197 1086 -157 b 1078 33 1086 -15 1082 11 b 1129 -40 1124 22 1129 -14 b 1085 -118 1129 -74 1111 -97 l 1097 -118 b 1139 -35 1119 -100 1139 -72 z m 718 -6 b 708 47 718 15 713 40 l 703 47 b 711 -6 710 25 711 15 b 604 -122 711 -75 654 -111 b 607 -108 606 -117 607 -112 b 521 -36 607 -69 564 -36 b 475 -75 494 -36 475 -47 b 575 -140 475 -124 544 -140 l 581 -140 b 499 -176 564 -161 531 -176 b 374 -100 458 -176 374 -156 b 418 -61 374 -79 385 -61 b 447 -67 428 -61 436 -62 l 447 -64 l 450 -64 b 232 71 383 21 322 53 l 207 76 b 332 249 233 96 332 172 b 171 394 332 338 275 394 b 39 310 117 394 39 381 b 128 242 39 267 82 242 b 219 297 165 242 201 271 l 219 310 b 128 261 192 286 163 261 b 53 310 93 261 53 278 b 178 381 53 372 128 381 b 317 256 256 381 317 339 b 157 75 317 189 240 106 b 28 33 122 63 85 54 b 178 47 93 43 135 47 b 431 -53 283 47 351 18 b 410 -50 421 -49 415 -50 b 364 -100 381 -50 364 -74 b 499 -186 364 -161 447 -186 b 599 -137 533 -186 581 -171 b 718 -6 664 -126 718 -76 z m 2321 957 b 2290 785 2308 897 2294 828 b 2218 660 2269 696 2244 660 b 2207 675 2207 660 2207 669 b 2250 944 2207 721 2243 906 b 2296 1035 2254 971 2263 1035 b 2321 957 2311 1035 2321 1018 z m 1910 971 b 1807 660 1869 732 1856 660 b 1796 675 1796 660 1796 669 b 1839 944 1796 721 1832 906 b 1885 1035 1843 971 1851 1035 b 1910 971 1896 1035 1908 1021 z m 1931 564 l 1925 564 b 1861 592 1893 564 1861 569 b 1882 610 1861 607 1871 610 b 1931 564 1908 610 1925 590 z m 1538 957 b 1507 785 1525 897 1511 828 b 1435 660 1486 696 1461 660 b 1424 675 1424 660 1424 669 b 1467 944 1424 721 1460 906 b 1513 1035 1471 971 1479 1035 b 1538 957 1528 1035 1538 1018 z m 1793 378 b 1681 189 1793 322 1753 200 b 1779 408 1699 289 1733 408 b 1793 378 1789 408 1793 399 z m 1833 171 b 1717 32 1833 115 1761 32 l 1717 35 b 1821 190 1717 94 1765 190 b 1833 171 1832 190 1833 181 z m 747 957 b 715 785 732 897 719 828 b 644 660 694 696 668 660 b 633 675 633 660 633 669 b 676 944 633 721 669 906 b 722 1035 681 967 696 1035 b 747 957 735 1035 747 1018 z m 1399 182 b 1364 33 1392 136 1389 33 b 1331 81 1338 33 1331 64 b 1399 182 1331 125 1358 178 z m 453 1206 b 282 936 453 1094 375 976 b 363 1157 304 1006 363 1151 b 429 1240 394 1224 408 1240 b 453 1206 450 1240 453 1224 z m 586 415 b 528 326 586 383 557 347 b 521 367 524 336 521 349 b 565 443 521 393 529 443 b 586 415 582 443 586 431 z m 935 -100 b 914 -117 935 -107 931 -117 b 893 -75 899 -117 893 -93 b 894 -57 893 -69 893 -62 b 935 -100 915 -67 935 -79 z m 1006 -100 b 900 -186 1006 -156 943 -186 b 800 -107 851 -186 800 -158 b 858 -51 800 -72 824 -51 b 881 -53 865 -51 871 -51 b 878 -78 876 -62 878 -68 b 917 -131 878 -101 894 -131 b 951 -96 943 -131 951 -108 b 900 -33 951 -79 938 -46 b 971 26 915 -1 939 17 b 1006 -100 981 -8 1006 -61 z m 340 525 b 269 513 317 517 293 513 b 175 556 235 513 175 518 b 231 588 175 583 214 588 b 340 525 268 588 319 563 z m 594 -106 b 568 -128 594 -126 586 -128 b 489 -82 540 -128 489 -117 b 526 -47 489 -58 506 -47 b 594 -106 556 -47 594 -72 z "},"§":{"ha":464,"x_min":0,"x_max":0,"o":"m 233 396 b 261 360 249 396 261 383 l 261 156 b 232 121 261 133 247 121 b 204 156 217 121 204 133 l 204 326 l 28 326 l 28 171 b 189 -8 28 42 74 -8 l 288 -8 b 443 171 397 -8 443 38 l 443 372 b 304 525 443 475 390 525 l 231 525 b 203 561 215 525 203 538 l 203 743 b 232 778 203 765 217 778 b 260 743 247 778 260 765 l 260 601 l 436 601 l 436 728 b 275 907 436 857 390 907 l 176 907 b 21 728 67 907 21 861 l 21 576 b 188 396 21 446 74 396 z "},"ƒ":{"ha":619,"x_min":0,"x_max":0,"o":"m 14 775 l 60 775 l 60 0 l 243 0 l 243 775 l 357 775 l 357 0 l 540 0 l 540 775 l 603 775 l 603 900 l 540 900 l 540 969 b 568 1006 540 993 553 1006 l 606 1006 l 606 1131 l 494 1131 b 357 967 403 1131 357 1103 l 357 900 l 243 900 l 243 969 b 271 1006 243 993 256 1006 l 308 1006 l 308 1131 l 197 1131 b 60 967 106 1131 60 1103 l 60 900 l 14 900 z "},"~":{"ha":871,"x_min":0,"x_max":0,"o":"m 14 775 l 60 775 l 60 0 l 243 0 l 243 775 l 357 775 l 357 0 l 540 0 l 540 775 l 603 775 l 603 900 l 540 900 l 540 969 b 568 1006 540 993 553 1006 l 606 1006 l 606 1131 l 494 1131 b 357 967 403 1131 357 1103 l 357 900 l 243 900 l 243 969 b 271 1006 243 993 256 1006 l 308 1006 l 308 1131 l 197 1131 b 60 967 106 1131 60 1103 l 60 900 l 14 900 z m 654 0 l 836 0 l 836 1131 l 654 1131 z "},"^":{"ha":871,"x_min":0,"x_max":0,"o":"m 14 775 l 60 775 l 60 0 l 243 0 l 243 775 l 357 775 l 357 0 l 540 0 l 540 775 l 654 775 l 654 0 l 836 0 l 836 900 l 540 900 l 540 969 b 568 1006 540 993 553 1006 l 606 1006 l 606 1131 l 494 1131 b 357 967 403 1131 357 1103 l 357 900 l 243 900 l 243 969 b 271 1006 243 993 256 1006 l 308 1006 l 308 1131 l 197 1131 b 60 967 106 1131 60 1103 l 60 900 l 14 900 z m 836 1131 l 654 1131 l 654 963 l 836 963 z "},"|":{"ha":251,"x_min":0,"x_max":0,"o":"m 217 1131 l 35 1131 l 35 963 l 217 963 z m -32 -207 l 81 -207 b 217 -43 172 -207 217 -179 l 217 900 l 35 900 l 35 -46 b 7 -81 35 -69 22 -81 l -32 -81 z "},"¬":{"ha":619,"x_min":0,"x_max":0,"o":"m 308 1131 l 197 1131 b 60 967 106 1131 60 1103 l 60 900 l 14 900 l 14 775 l 60 775 l 60 0 l 243 0 l 243 775 l 357 775 l 357 164 b 464 0 357 58 372 0 l 606 0 l 606 125 l 568 125 b 540 161 553 125 540 138 l 540 775 l 603 775 l 603 900 l 540 900 l 540 1021 l 357 1021 l 357 900 l 243 900 l 243 969 b 271 1006 243 993 256 1006 l 308 1006 z "},"æ":{"ha":719,"x_min":0,"x_max":0,"o":"m 508 161 b 479 125 508 138 494 125 b 451 161 464 125 451 138 l 451 414 l 685 414 l 685 728 b 517 907 685 857 631 907 l 426 907 b 363 872 401 907 381 904 b 301 907 346 904 325 907 l 196 907 b 36 728 82 907 36 857 l 36 601 l 211 601 l 211 743 b 239 778 211 765 224 778 b 268 743 254 778 268 765 l 268 549 b 28 368 139 529 28 517 l 28 157 b 163 -12 28 18 86 -12 b 299 67 194 -12 265 0 b 438 -4 325 13 371 -4 l 536 -4 b 685 176 646 -4 685 42 l 685 335 l 508 335 z m 211 385 b 268 432 211 408 233 426 l 268 161 b 239 125 268 138 254 125 b 211 161 224 125 211 138 z m 451 529 l 451 747 b 481 778 453 767 465 778 b 508 743 496 778 508 765 l 508 529 z "},"(":{"ha":314,"x_min":0,"x_max":0,"o":"m 35 179 b 192 0 35 46 82 0 l 293 0 l 293 143 l 236 143 b 204 178 218 143 204 156 l 204 953 b 236 988 204 975 218 988 l 292 988 l 292 1131 l 192 1131 b 35 951 82 1131 35 1085 z "},")":{"ha":314,"x_min":0,"x_max":0,"o":"m 279 951 b 122 1131 279 1085 232 1131 l 22 1131 l 22 988 l 78 988 b 110 953 96 988 110 975 l 110 178 b 78 143 110 156 96 143 l 21 143 l 21 0 l 122 0 b 279 179 232 0 279 46 z "},"&":{"ha":514,"x_min":0,"x_max":0,"o":"m 281 833 l 465 833 l 465 958 b 297 1139 465 1089 411 1139 l 203 1139 b 35 958 89 1139 35 1089 l 35 764 b 144 586 35 650 68 600 b 35 410 68 574 35 522 l 35 175 b 203 -6 35 44 89 -6 l 297 -6 b 465 175 411 -6 465 44 l 465 510 l 500 510 l 500 658 l 249 658 b 219 693 235 658 219 672 l 219 958 b 250 994 219 982 235 994 b 281 958 265 994 281 982 z m 219 476 b 251 511 219 499 236 511 l 281 511 l 281 175 b 250 139 281 151 265 139 b 219 175 235 139 219 151 z "},"†":{"ha":583,"x_min":0,"x_max":0,"o":"m 14 775 l 208 775 l 208 0 l 390 0 l 390 775 l 569 775 l 569 900 l 390 900 l 390 1131 l 208 1131 l 208 900 l 14 900 z "},"‡":{"ha":583,"x_min":0,"x_max":0,"o":"m 14 775 l 208 775 l 208 614 l 14 614 l 14 489 l 208 489 l 208 0 l 390 0 l 390 489 l 569 489 l 569 614 l 390 614 l 390 775 l 569 775 l 569 900 l 390 900 l 390 1131 l 208 1131 l 208 900 l 14 900 z "},"+":{"ha":583,"x_min":0,"x_max":0,"o":"m 14 388 l 229 388 l 229 172 l 354 172 l 354 388 l 569 388 l 569 513 l 354 513 l 354 728 l 229 728 l 229 513 l 14 513 z "},"−":{"ha":583,"x_min":0,"x_max":0,"o":"m 14 388 l 569 388 l 569 513 l 14 513 z "},"=":{"ha":597,"x_min":0,"x_max":0,"o":"m 21 533 l 576 533 l 576 658 l 21 658 z m 21 242 l 576 242 l 576 367 l 21 367 z "},"×":{"ha":508,"x_min":0,"x_max":0,"o":"m 14 603 l 167 450 l 14 297 l 101 210 l 254 363 l 407 210 l 494 297 l 342 450 l 494 603 l 407 690 l 254 538 l 101 690 z "},"÷":{"ha":583,"x_min":0,"x_max":0,"o":"m 14 388 l 569 388 l 569 513 l 14 513 z m 385 289 l 203 289 l 203 121 l 385 121 z m 385 775 l 203 775 l 203 607 l 385 607 z "},"-":{"ha":361,"x_min":0,"x_max":0,"o":"m 14 388 l 347 388 l 347 513 l 14 513 z "},"Ð":{"ha":535,"x_min":0,"x_max":0,"o":"m 0 503 l 35 503 l 35 0 l 338 0 b 494 181 449 0 494 46 l 494 950 b 326 1131 494 1081 440 1131 l 35 1131 l 35 628 l 0 628 z m 296 181 b 264 146 296 158 279 146 l 232 146 l 232 503 l 264 503 l 264 628 l 232 628 l 232 986 l 265 986 b 296 950 281 986 296 974 z "},"…":{"ha":754,"x_min":0,"x_max":0,"o":"m 217 168 l 35 168 l 35 0 l 217 0 z m 468 168 l 286 168 l 286 0 l 468 0 z m 719 168 l 538 168 l 538 0 l 719 0 z "},"˘":{"ha":417,"x_min":0,"x_max":0,"o":"m 35 1157 b 207 972 43 1035 106 972 b 381 1157 308 972 372 1035 l 278 1157 b 207 1072 271 1110 257 1072 b 139 1157 157 1072 144 1110 z "},"˙":{"ha":417,"x_min":0,"x_max":0,"o":"m 131 1131 l 131 972 l 286 972 l 286 1131 z "},"˚":{"ha":417,"x_min":0,"x_max":0,"o":"m 208 1228 b 81 1100 138 1228 81 1172 b 208 972 81 1029 138 972 b 338 1100 279 972 338 1029 b 208 1228 338 1172 281 1228 z m 207 1149 b 258 1099 235 1149 258 1125 b 207 1047 258 1071 235 1047 b 157 1099 181 1047 157 1069 b 207 1149 157 1126 181 1149 z "},"˝":{"ha":417,"x_min":0,"x_max":0,"o":"m 101 1161 l 29 974 l 119 974 l 267 1161 z m 311 1161 l 239 974 l 329 974 l 476 1161 z "},"˛":{"ha":417,"x_min":0,"x_max":0,"o":"m 436 -106 b 367 -121 418 -112 394 -121 b 322 -82 338 -121 322 -106 b 388 13 322 -54 350 -24 l 299 13 b 233 -99 261 -21 233 -53 b 356 -194 233 -154 279 -194 b 461 -167 406 -194 436 -178 z "},"ˇ":{"ha":417,"x_min":0,"x_max":0,"o":"m 142 1144 l -31 1144 l 128 972 l 299 972 l 446 1144 l 281 1144 l 213 1064 z "},"`":{"ha":417,"x_min":0,"x_max":0,"o":"m 201 972 l 325 972 l 218 1136 l 0 1136 z "},"ˆ":{"ha":417,"x_min":0,"x_max":0,"o":"m 281 972 l 446 972 l 299 1144 l 128 1144 l -31 972 l 142 972 l 213 1051 z "},"˜":{"ha":417,"x_min":0,"x_max":0,"o":"m 301 1103 b 236 1121 281 1103 258 1111 l 199 1135 b 107 1154 171 1144 142 1154 b -49 1036 42 1154 -4 1111 l 47 972 b 122 1033 65 1007 89 1033 b 188 1015 143 1033 168 1024 l 232 997 b 322 976 263 985 299 976 b 467 1088 378 976 429 1011 l 368 1158 b 301 1103 357 1124 336 1103 z "},"¨":{"ha":417,"x_min":0,"x_max":0,"o":"m -4 1131 l -4 972 l 153 972 l 153 1131 z m 261 1131 l 261 972 l 421 972 l 421 1131 z "},"´":{"ha":417,"x_min":0,"x_max":0,"o":"m 200 1136 l 93 972 l 217 972 l 418 1136 z "},"¸":{"ha":417,"x_min":0,"x_max":0,"o":"m 174 -117 b 226 -157 206 -117 226 -131 b 192 -193 226 -181 213 -193 b 158 -168 174 -193 165 -182 l 68 -168 b 189 -264 86 -232 135 -264 b 318 -150 263 -264 318 -210 b 231 -69 318 -106 286 -72 l 231 7 l 158 7 l 158 -117 z "},"ÿ":{"ha":457,"x_min":0,"x_max":0,"o":"m 113 0 l 193 0 l 172 -208 l 325 -208 l 450 900 l 275 900 l 229 224 l 183 900 l 7 900 z m 15 1131 l 15 972 l 172 972 l 172 1131 z m 281 1131 l 281 972 l 440 972 l 440 1131 z "},"ý":{"ha":457,"x_min":0,"x_max":0,"o":"m 113 0 l 193 0 l 172 -208 l 325 -208 l 450 900 l 275 900 l 229 224 l 183 900 l 7 900 z m 247 1136 l 140 972 l 264 972 l 465 1136 z "},"Ÿ":{"ha":510,"x_min":0,"x_max":0,"o":"m 503 1131 l 317 1131 l 256 622 l 194 1131 l 7 1131 l 157 333 l 157 0 l 354 0 l 354 332 z m 42 1361 l 42 1203 l 199 1203 l 199 1361 z m 307 1361 l 307 1203 l 467 1203 l 467 1361 z "},"Ý":{"ha":510,"x_min":0,"x_max":0,"o":"m 503 1131 l 317 1131 l 256 622 l 194 1131 l 7 1131 l 157 333 l 157 0 l 354 0 l 354 332 z m 292 1367 l 185 1203 l 308 1203 l 510 1367 z "},"Ä":{"ha":533,"x_min":0,"x_max":0,"o":"m 7 0 l 197 0 l 218 285 l 315 285 l 338 0 l 526 0 l 418 1131 l 119 1131 z m 267 936 l 304 438 l 229 438 z m 54 1361 l 54 1203 l 211 1203 l 211 1361 z m 319 1361 l 319 1203 l 479 1203 l 479 1361 z "},"Ë":{"ha":401,"x_min":0,"x_max":0,"o":"m 381 153 l 232 153 l 232 499 l 367 499 l 367 651 l 232 651 l 232 978 l 381 978 l 381 1131 l 35 1131 l 35 0 l 381 0 z m -3 1361 l -3 1203 l 154 1203 l 154 1361 z m 263 1361 l 263 1203 l 422 1203 l 422 1361 z "},"Ï":{"ha":267,"x_min":0,"x_max":0,"o":"m 35 0 l 232 0 l 232 1131 l 35 1131 z m -79 1361 l -79 1203 l 78 1203 l 78 1361 z m 186 1361 l 186 1203 l 346 1203 l 346 1361 z "},"Ö":{"ha":529,"x_min":0,"x_max":0,"o":"m 494 965 b 326 1146 494 1096 440 1146 l 190 1146 b 35 965 81 1146 35 1100 l 35 168 b 201 -12 35 39 88 -12 l 338 -12 b 494 168 449 -12 494 33 z m 296 168 b 264 133 296 146 279 133 b 232 168 249 133 232 146 l 232 965 b 265 1001 232 989 250 1001 b 296 965 281 1001 296 989 z m 51 1361 l 51 1203 l 208 1203 l 208 1361 z m 317 1361 l 317 1203 l 476 1203 l 476 1361 z "},"Ü":{"ha":529,"x_min":0,"x_max":0,"o":"m 296 168 b 264 133 296 146 279 133 b 232 168 249 133 232 146 l 232 1131 l 35 1131 l 35 168 b 201 -12 35 39 88 -12 l 338 -12 b 494 168 449 -12 494 33 l 494 1131 l 296 1131 z m 51 1361 l 51 1203 l 208 1203 l 208 1361 z m 317 1361 l 317 1203 l 476 1203 l 476 1361 z "},"ä":{"ha":486,"x_min":0,"x_max":0,"o":"m 451 0 l 451 728 b 301 907 451 861 411 907 l 196 907 b 36 728 82 907 36 857 l 36 601 l 211 601 l 211 743 b 239 778 211 765 224 778 b 268 743 254 778 268 765 l 268 549 b 28 368 139 529 28 517 l 28 157 b 163 -12 28 18 86 -12 b 271 29 194 -12 242 0 l 285 0 z m 211 385 b 268 421 211 408 233 419 l 268 161 b 239 125 268 138 254 125 b 211 161 224 125 211 138 z m 31 1131 l 31 972 l 188 972 l 188 1131 z m 296 1131 l 296 972 l 456 972 l 456 1131 z "},"ë":{"ha":483,"x_min":0,"x_max":0,"o":"m 272 161 b 243 125 272 138 258 125 b 215 161 228 125 215 138 l 215 414 l 449 414 l 449 728 b 281 907 449 857 394 907 l 190 907 b 35 728 81 907 35 861 l 35 176 b 201 -4 35 46 88 -4 l 300 -4 b 449 176 410 -4 449 42 l 449 335 l 272 335 z m 215 743 b 244 778 215 765 229 778 b 272 743 260 778 272 765 l 272 529 l 215 529 z m 32 1131 l 32 972 l 189 972 l 189 1131 z m 297 1131 l 297 972 l 457 972 l 457 1131 z "},"ï":{"ha":251,"x_min":0,"x_max":0,"o":"m 35 0 l 217 0 l 217 900 l 35 900 z m -86 1131 l -86 972 l 71 972 l 71 1131 z m 179 1131 l 179 972 l 339 972 l 339 1131 z "},"ö":{"ha":492,"x_min":0,"x_max":0,"o":"m 457 728 b 289 907 457 857 404 907 l 190 907 b 35 728 81 907 35 861 l 35 176 b 201 -4 35 46 88 -4 l 301 -4 b 457 176 411 -4 457 42 z m 274 161 b 244 125 274 138 260 125 b 217 161 229 125 217 138 l 217 743 b 246 778 217 765 231 778 b 274 743 261 778 274 765 z m 33 1131 l 33 972 l 190 972 l 190 1131 z m 299 1131 l 299 972 l 458 972 l 458 1131 z "},"ü":{"ha":492,"x_min":0,"x_max":0,"o":"m 274 161 b 244 125 274 138 260 125 b 217 161 229 125 217 138 l 217 900 l 35 900 l 35 157 b 168 -12 35 18 92 -12 b 276 29 200 -12 249 0 l 290 0 l 457 0 l 457 900 l 274 900 z m 33 1131 l 33 972 l 190 972 l 190 1131 z m 299 1131 l 299 972 l 458 972 l 458 1131 z "},"ñ":{"ha":492,"x_min":0,"x_max":0,"o":"m 217 739 b 246 775 217 763 231 775 b 274 739 261 775 274 763 l 274 0 l 457 0 l 457 743 b 322 913 457 882 399 913 b 214 871 290 913 243 900 l 199 900 l 35 900 l 35 0 l 217 0 z m 338 1103 b 272 1121 317 1103 294 1111 l 235 1135 b 143 1154 207 1144 178 1154 b -12 1036 78 1154 32 1111 l 83 972 b 158 1033 101 1007 125 1033 b 224 1015 179 1033 204 1024 l 268 997 b 358 976 299 985 335 976 b 503 1088 414 976 465 1011 l 404 1158 b 338 1103 393 1124 372 1103 z "},"õ":{"ha":492,"x_min":0,"x_max":0,"o":"m 457 728 b 289 907 457 857 404 907 l 190 907 b 35 728 81 907 35 861 l 35 176 b 201 -4 35 46 88 -4 l 301 -4 b 457 176 411 -4 457 42 z m 274 161 b 244 125 274 138 260 125 b 217 161 229 125 217 138 l 217 743 b 246 778 217 765 231 778 b 274 743 261 778 274 765 z m 338 1103 b 272 1121 317 1103 294 1111 l 235 1135 b 143 1154 207 1144 178 1154 b -12 1036 78 1154 32 1111 l 83 972 b 158 1033 101 1007 125 1033 b 224 1015 179 1033 204 1024 l 268 997 b 358 976 299 985 335 976 b 503 1088 414 976 465 1011 l 404 1158 b 338 1103 393 1124 372 1103 z "},"å":{"ha":486,"x_min":0,"x_max":0,"o":"m 451 0 l 451 728 b 301 907 451 861 411 907 l 196 907 b 36 728 82 907 36 857 l 36 601 l 211 601 l 211 743 b 239 778 211 765 224 778 b 268 743 254 778 268 765 l 268 549 b 28 368 139 529 28 517 l 28 157 b 163 -12 28 18 86 -12 b 271 29 194 -12 242 0 l 285 0 z m 211 385 b 268 421 211 408 233 419 l 268 161 b 239 125 268 138 254 125 b 211 161 224 125 211 138 z m 242 1228 b 114 1100 171 1228 114 1172 b 242 972 114 1029 171 972 b 371 1100 313 972 371 1029 b 242 1228 371 1172 314 1228 z m 240 1149 b 292 1099 268 1149 292 1125 b 240 1047 292 1071 268 1047 b 190 1099 214 1047 190 1069 b 240 1149 190 1126 214 1149 z "},"ã":{"ha":486,"x_min":0,"x_max":0,"o":"m 451 0 l 451 728 b 301 907 451 861 411 907 l 196 907 b 36 728 82 907 36 857 l 36 601 l 211 601 l 211 743 b 239 778 211 765 224 778 b 268 743 254 778 268 765 l 268 549 b 28 368 139 529 28 517 l 28 157 b 163 -12 28 18 86 -12 b 271 29 194 -12 242 0 l 285 0 z m 211 385 b 268 421 211 408 233 419 l 268 161 b 239 125 268 138 254 125 b 211 161 224 125 211 138 z m 335 1103 b 269 1121 314 1103 292 1111 l 232 1135 b 140 1154 204 1144 175 1154 b -15 1036 75 1154 29 1111 l 81 972 b 156 1033 99 1007 122 1033 b 221 1015 176 1033 201 1024 l 265 997 b 356 976 296 985 332 976 b 500 1088 411 976 463 1011 l 401 1158 b 335 1103 390 1124 369 1103 z "},"â":{"ha":486,"x_min":0,"x_max":0,"o":"m 451 0 l 451 728 b 301 907 451 861 411 907 l 196 907 b 36 728 82 907 36 857 l 36 601 l 211 601 l 211 743 b 239 778 211 765 224 778 b 268 743 254 778 268 765 l 268 549 b 28 368 139 529 28 517 l 28 157 b 163 -12 28 18 86 -12 b 271 29 194 -12 242 0 l 285 0 z m 211 385 b 268 421 211 408 233 419 l 268 161 b 239 125 268 138 254 125 b 211 161 224 125 211 138 z m 315 972 l 481 972 l 333 1144 l 163 1144 l 4 972 l 176 972 l 247 1051 z "},"á":{"ha":486,"x_min":0,"x_max":0,"o":"m 451 0 l 451 728 b 301 907 451 861 411 907 l 196 907 b 36 728 82 907 36 857 l 36 601 l 211 601 l 211 743 b 239 778 211 765 224 778 b 268 743 254 778 268 765 l 268 549 b 28 368 139 529 28 517 l 28 157 b 163 -12 28 18 86 -12 b 271 29 194 -12 242 0 l 285 0 z m 211 385 b 268 421 211 408 233 419 l 268 161 b 239 125 268 138 254 125 b 211 161 224 125 211 138 z m 257 1136 l 150 972 l 274 972 l 475 1136 z "},"à":{"ha":486,"x_min":0,"x_max":0,"o":"m 451 0 l 451 728 b 301 907 451 861 411 907 l 196 907 b 36 728 82 907 36 857 l 36 601 l 211 601 l 211 743 b 239 778 211 765 224 778 b 268 743 254 778 268 765 l 268 549 b 28 368 139 529 28 517 l 28 157 b 163 -12 28 18 86 -12 b 271 29 194 -12 242 0 l 285 0 z m 211 385 b 268 421 211 408 233 419 l 268 161 b 239 125 268 138 254 125 b 211 161 224 125 211 138 z m 226 972 l 350 972 l 243 1136 l 25 1136 z "},"è":{"ha":483,"x_min":0,"x_max":0,"o":"m 272 161 b 243 125 272 138 258 125 b 215 161 228 125 215 138 l 215 414 l 449 414 l 449 728 b 281 907 449 857 394 907 l 190 907 b 35 728 81 907 35 861 l 35 176 b 201 -4 35 46 88 -4 l 300 -4 b 449 176 410 -4 449 42 l 449 335 l 272 335 z m 215 743 b 244 778 215 765 229 778 b 272 743 260 778 272 765 l 272 529 l 215 529 z m 228 972 l 351 972 l 244 1136 l 26 1136 z "},"é":{"ha":483,"x_min":0,"x_max":0,"o":"m 272 161 b 243 125 272 138 258 125 b 215 161 228 125 215 138 l 215 414 l 449 414 l 449 728 b 281 907 449 857 394 907 l 190 907 b 35 728 81 907 35 861 l 35 176 b 201 -4 35 46 88 -4 l 300 -4 b 449 176 410 -4 449 42 l 449 335 l 272 335 z m 215 743 b 244 778 215 765 229 778 b 272 743 260 778 272 765 l 272 529 l 215 529 z m 258 1136 l 151 972 l 275 972 l 476 1136 z "},"ê":{"ha":483,"x_min":0,"x_max":0,"o":"m 272 161 b 243 125 272 138 258 125 b 215 161 228 125 215 138 l 215 414 l 449 414 l 449 728 b 281 907 449 857 394 907 l 190 907 b 35 728 81 907 35 861 l 35 176 b 201 -4 35 46 88 -4 l 300 -4 b 449 176 410 -4 449 42 l 449 335 l 272 335 z m 215 743 b 244 778 215 765 229 778 b 272 743 260 778 272 765 l 272 529 l 215 529 z m 317 972 l 482 972 l 335 1144 l 164 1144 l 6 972 l 178 972 l 249 1051 z "},"ù":{"ha":492,"x_min":0,"x_max":0,"o":"m 274 161 b 244 125 274 138 260 125 b 217 161 229 125 217 138 l 217 900 l 35 900 l 35 157 b 168 -12 35 18 92 -12 b 276 29 200 -12 249 0 l 290 0 l 457 0 l 457 900 l 274 900 z m 229 972 l 353 972 l 246 1136 l 28 1136 z "},"ú":{"ha":492,"x_min":0,"x_max":0,"o":"m 274 161 b 244 125 274 138 260 125 b 217 161 229 125 217 138 l 217 900 l 35 900 l 35 157 b 168 -12 35 18 92 -12 b 276 29 200 -12 249 0 l 290 0 l 457 0 l 457 900 l 274 900 z m 274 1136 l 167 972 l 290 972 l 492 1136 z "},"û":{"ha":492,"x_min":0,"x_max":0,"o":"m 274 161 b 244 125 274 138 260 125 b 217 161 229 125 217 138 l 217 900 l 35 900 l 35 157 b 168 -12 35 18 92 -12 b 276 29 200 -12 249 0 l 290 0 l 457 0 l 457 900 l 274 900 z m 318 972 l 483 972 l 336 1144 l 165 1144 l 7 972 l 179 972 l 250 1051 z "},"Î":{"ha":267,"x_min":0,"x_max":0,"o":"m 35 0 l 232 0 l 232 1131 l 35 1131 z m 207 1203 l 372 1203 l 225 1375 l 54 1375 l -104 1203 l 68 1203 l 139 1282 z "},"Ô":{"ha":529,"x_min":0,"x_max":0,"o":"m 494 965 b 326 1146 494 1096 440 1146 l 190 1146 b 35 965 81 1146 35 1100 l 35 168 b 201 -12 35 39 88 -12 l 338 -12 b 494 168 449 -12 494 33 z m 296 168 b 264 133 296 146 279 133 b 232 168 249 133 232 146 l 232 965 b 265 1001 232 989 250 1001 b 296 965 281 1001 296 989 z m 338 1203 l 503 1203 l 356 1375 l 185 1375 l 26 1203 l 199 1203 l 269 1282 z "},"Õ":{"ha":529,"x_min":0,"x_max":0,"o":"m 494 965 b 326 1146 494 1096 440 1146 l 190 1146 b 35 965 81 1146 35 1100 l 35 168 b 201 -12 35 39 88 -12 l 338 -12 b 494 168 449 -12 494 33 z m 296 168 b 264 133 296 146 279 133 b 232 168 249 133 232 146 l 232 965 b 265 1001 232 989 250 1001 b 296 965 281 1001 296 989 z m 357 1333 b 292 1351 336 1333 314 1342 l 254 1365 b 163 1385 226 1375 197 1385 b 7 1267 97 1385 51 1342 l 103 1203 b 178 1264 121 1238 144 1264 b 243 1246 199 1264 224 1254 l 288 1228 b 378 1207 318 1215 354 1207 b 522 1318 433 1207 485 1242 l 424 1389 b 357 1333 413 1354 392 1333 z "},"Ñ":{"ha":578,"x_min":0,"x_max":0,"o":"m 331 0 l 543 0 l 543 1131 l 360 1131 l 360 524 l 239 1131 l 35 1131 l 35 0 l 213 0 l 213 604 z m 381 1333 b 315 1351 360 1333 338 1342 l 278 1365 b 186 1385 250 1375 221 1385 b 31 1267 121 1385 75 1342 l 126 1203 b 201 1264 144 1238 168 1264 b 267 1246 222 1264 247 1254 l 311 1228 b 401 1207 342 1215 378 1207 b 546 1318 457 1207 508 1242 l 447 1389 b 381 1333 436 1354 415 1333 z "},"î":{"ha":251,"x_min":0,"x_max":0,"o":"m 35 0 l 217 0 l 217 900 l 35 900 z m 199 972 l 364 972 l 217 1144 l 46 1144 l -112 972 l 60 972 l 131 1051 z "},"Û":{"ha":529,"x_min":0,"x_max":0,"o":"m 296 168 b 264 133 296 146 279 133 b 232 168 249 133 232 146 l 232 1131 l 35 1131 l 35 168 b 201 -12 35 39 88 -12 l 338 -12 b 494 168 449 -12 494 33 l 494 1131 l 296 1131 z m 338 1203 l 503 1203 l 356 1375 l 185 1375 l 26 1203 l 199 1203 l 269 1282 z "},"ô":{"ha":492,"x_min":0,"x_max":0,"o":"m 457 728 b 289 907 457 857 404 907 l 190 907 b 35 728 81 907 35 861 l 35 176 b 201 -4 35 46 88 -4 l 301 -4 b 457 176 411 -4 457 42 z m 274 161 b 244 125 274 138 260 125 b 217 161 229 125 217 138 l 217 743 b 246 778 217 765 231 778 b 274 743 261 778 274 765 z m 318 972 l 483 972 l 336 1144 l 165 1144 l 7 972 l 179 972 l 250 1051 z "},"Ã":{"ha":533,"x_min":0,"x_max":0,"o":"m 7 0 l 197 0 l 218 285 l 315 285 l 338 0 l 526 0 l 418 1131 l 119 1131 z m 267 936 l 304 438 l 229 438 z m 358 1333 b 293 1351 338 1333 315 1342 l 256 1365 b 164 1385 228 1375 199 1385 b 8 1267 99 1385 53 1342 l 104 1203 b 179 1264 122 1238 146 1264 b 244 1246 200 1264 225 1254 l 289 1228 b 379 1207 319 1215 356 1207 b 524 1318 435 1207 486 1242 l 425 1389 b 358 1333 414 1354 393 1333 z "},"Â":{"ha":533,"x_min":0,"x_max":0,"o":"m 7 0 l 197 0 l 218 285 l 315 285 l 338 0 l 526 0 l 418 1131 l 119 1131 z m 267 936 l 304 438 l 229 438 z m 339 1203 l 504 1203 l 357 1375 l 186 1375 l 28 1203 l 200 1203 l 271 1282 z "},"Å":{"ha":533,"x_min":0,"x_max":0,"o":"m 7 0 l 197 0 l 218 285 l 315 285 l 338 0 l 526 0 l 418 1131 l 119 1131 z m 267 936 l 304 438 l 229 438 z m 268 1458 b 140 1331 197 1458 140 1403 b 268 1203 140 1260 197 1203 b 397 1331 339 1203 397 1260 b 268 1458 397 1403 340 1458 z m 267 1379 b 318 1329 294 1379 318 1356 b 267 1278 318 1301 294 1278 b 217 1329 240 1278 217 1300 b 267 1379 217 1357 240 1379 z "},"Ê":{"ha":401,"x_min":0,"x_max":0,"o":"m 381 153 l 232 153 l 232 499 l 367 499 l 367 651 l 232 651 l 232 978 l 381 978 l 381 1131 l 35 1131 l 35 0 l 381 0 z m 274 1203 l 439 1203 l 292 1375 l 121 1375 l -37 1203 l 135 1203 l 206 1282 z "},"Ž":{"ha":422,"x_min":0,"x_max":0,"o":"m 21 0 l 401 0 l 401 139 l 213 139 l 401 976 l 401 1131 l 28 1131 l 28 992 l 210 992 l 21 156 z m 144 1375 l -28 1375 l 131 1203 l 301 1203 l 449 1375 l 283 1375 l 215 1294 z "},"ž":{"ha":381,"x_min":0,"x_max":0,"o":"m 14 0 l 367 0 l 367 125 l 192 125 l 367 760 l 367 900 l 26 900 l 26 775 l 189 775 l 14 142 z m 125 1144 l -47 1144 l 111 972 l 282 972 l 429 1144 l 264 1144 l 196 1064 z "},"Š":{"ha":519,"x_min":0,"x_max":0,"o":"m 293 167 b 261 132 293 144 279 132 b 231 167 243 132 231 144 l 231 404 l 42 404 l 42 168 b 201 -12 42 39 88 -12 l 328 -12 b 485 168 438 -12 485 35 l 485 403 b 231 788 485 613 231 660 l 231 968 b 263 1003 231 990 244 1003 b 293 968 279 1003 293 990 l 293 763 l 478 763 l 478 967 b 317 1146 478 1096 432 1146 l 192 1146 b 35 967 82 1146 35 1100 l 35 754 b 293 364 35 567 293 496 z m 193 1375 l 21 1375 l 179 1203 l 350 1203 l 497 1375 l 332 1375 l 264 1294 z "},"š":{"ha":464,"x_min":0,"x_max":0,"o":"m 260 157 b 231 122 260 135 246 122 b 203 157 215 122 203 135 l 203 326 l 28 326 l 28 172 b 188 -8 28 43 74 -8 l 286 -8 b 443 172 396 -8 443 39 l 443 308 b 203 640 443 518 203 513 l 203 743 b 232 778 203 765 217 778 b 260 743 247 778 260 765 l 260 601 l 436 601 l 436 728 b 275 907 436 857 390 907 l 178 907 b 21 728 68 907 21 861 l 21 607 b 260 286 21 419 260 418 z m 165 1144 l -7 1144 l 151 972 l 322 972 l 469 1144 l 304 1144 l 236 1064 z "},"Ç":{"ha":514,"x_min":0,"x_max":0,"o":"m 238 -110 b 290 -150 269 -110 290 -124 b 256 -186 290 -174 276 -186 b 222 -161 238 -186 229 -175 l 132 -161 b 253 -257 150 -225 199 -257 b 382 -143 326 -257 382 -203 b 294 -62 382 -99 350 -65 l 294 -12 l 331 -12 b 486 168 440 -12 486 33 l 486 410 l 296 410 l 296 168 b 264 133 296 146 279 133 b 232 168 249 133 232 146 l 232 965 b 265 1001 232 989 250 1001 b 296 965 281 1001 296 989 l 296 764 l 486 764 l 486 965 b 318 1146 486 1096 433 1146 l 190 1146 b 35 965 81 1146 35 1100 l 35 168 b 201 -12 35 39 88 -12 l 222 -12 l 222 -110 z "},"ç":{"ha":478,"x_min":0,"x_max":0,"o":"m 219 -103 b 272 -143 251 -103 272 -117 b 238 -179 272 -167 258 -179 b 204 -154 219 -179 211 -168 l 114 -154 b 235 -250 132 -218 181 -250 b 364 -136 308 -250 364 -196 b 276 -56 364 -92 332 -58 l 276 -4 l 301 -4 b 450 176 411 -4 450 42 l 450 335 l 274 335 l 274 161 b 244 125 274 138 260 125 b 217 161 229 125 217 138 l 217 743 b 246 778 217 765 231 778 b 274 743 261 778 274 765 l 274 596 l 450 596 l 450 728 b 289 907 450 857 404 907 l 190 907 b 35 728 81 907 35 861 l 35 176 b 201 -4 35 46 88 -4 l 204 -4 l 204 -103 z "},"Ò":{"ha":529,"x_min":0,"x_max":0,"o":"m 494 965 b 326 1146 494 1096 440 1146 l 190 1146 b 35 965 81 1146 35 1100 l 35 168 b 201 -12 35 39 88 -12 l 338 -12 b 494 168 449 -12 494 33 z m 296 168 b 264 133 296 146 279 133 b 232 168 249 133 232 146 l 232 965 b 265 1001 232 989 250 1001 b 296 965 281 1001 296 989 z m 261 1203 l 385 1203 l 278 1367 l 60 1367 z "},"Ó":{"ha":529,"x_min":0,"x_max":0,"o":"m 494 965 b 326 1146 494 1096 440 1146 l 190 1146 b 35 965 81 1146 35 1100 l 35 168 b 201 -12 35 39 88 -12 l 338 -12 b 494 168 449 -12 494 33 z m 296 168 b 264 133 296 146 279 133 b 232 168 249 133 232 146 l 232 965 b 265 1001 232 989 250 1001 b 296 965 281 1001 296 989 z m 293 1367 l 186 1203 l 310 1203 l 511 1367 z "},"Í":{"ha":267,"x_min":0,"x_max":0,"o":"m 35 0 l 232 0 l 232 1131 l 35 1131 z m 142 1367 l 35 1203 l 158 1203 l 360 1367 z "},"Ì":{"ha":267,"x_min":0,"x_max":0,"o":"m 35 0 l 232 0 l 232 1131 l 35 1131 z m 115 1203 l 239 1203 l 132 1367 l -86 1367 z "},"–":{"ha":536,"x_min":0,"x_max":0,"o":"m 14 388 l 522 388 l 522 513 l 14 513 z "},"—":{"ha":690,"x_min":0,"x_max":0,"o":"m 14 388 l 676 388 l 676 513 l 14 513 z "},"!":{"ha":251,"x_min":0,"x_max":0,"o":"m 63 231 l 189 231 l 231 1131 l 21 1131 z m 217 168 l 35 168 l 35 0 l 217 0 z "},"¡":{"ha":251,"x_min":0,"x_max":0,"o":"m 189 692 l 63 692 l 21 -208 l 231 -208 z m 35 754 l 217 754 l 217 922 l 35 922 z "},"¥":{"ha":510,"x_min":0,"x_max":0,"o":"m 8 326 l 157 326 l 157 250 l 8 250 l 8 181 l 157 181 l 157 0 l 354 0 l 354 181 l 503 181 l 503 250 l 354 250 l 354 326 l 503 326 l 503 396 l 365 396 l 503 1131 l 317 1131 l 256 622 l 194 1131 l 7 1131 l 144 396 l 8 396 z "},"$":{"ha":519,"x_min":0,"x_max":0,"o":"m 293 167 b 261 132 293 144 279 132 b 231 167 243 132 231 144 l 231 404 l 42 404 l 42 168 b 190 -12 42 43 85 -8 l 190 -139 l 339 -139 l 339 -12 b 485 168 440 -8 485 39 l 485 403 b 231 788 485 613 231 660 l 231 968 b 263 1003 231 990 244 1003 b 293 968 279 1003 293 990 l 293 763 l 478 763 l 478 967 b 339 1144 478 1088 438 1139 l 339 1278 l 190 1278 l 190 1146 b 35 967 81 1144 35 1099 l 35 754 b 293 364 35 567 293 496 z "},"¢":{"ha":478,"x_min":0,"x_max":0,"o":"m 274 274 b 244 238 274 250 260 238 b 217 274 229 238 217 250 l 217 856 b 246 890 217 878 231 890 b 274 856 261 890 274 878 l 274 708 l 450 708 l 450 840 b 306 1018 450 963 408 1014 l 306 1131 l 179 1131 l 179 1019 b 35 840 76 1017 35 968 l 35 289 b 179 108 35 167 81 115 l 179 0 l 306 0 l 306 108 b 450 289 413 110 450 156 l 450 447 l 274 447 z "},"€":{"ha":514,"x_min":0,"x_max":0,"o":"m 3 621 l 35 621 l 35 549 l 3 549 l 3 479 l 35 479 l 35 168 b 201 -12 35 39 88 -12 l 331 -12 b 486 168 440 -12 486 33 l 486 410 l 296 410 l 296 168 b 264 133 296 146 279 133 b 232 168 249 133 232 146 l 232 479 l 482 479 l 482 549 l 232 549 l 232 621 l 482 621 l 482 690 l 232 690 l 232 965 b 265 1001 232 989 250 1001 b 296 965 281 1001 296 989 l 296 764 l 486 764 l 486 965 b 318 1146 486 1096 433 1146 l 190 1146 b 35 965 81 1146 35 1100 l 35 690 l 3 690 z "},"¤":{"ha":514,"x_min":0,"x_max":0,"o":"m 3 621 l 35 621 l 35 549 l 3 549 l 3 479 l 35 479 l 35 168 b 201 -12 35 39 88 -12 l 331 -12 b 486 168 440 -12 486 33 l 486 410 l 296 410 l 296 168 b 264 133 296 146 279 133 b 232 168 249 133 232 146 l 232 479 l 482 479 l 482 549 l 232 549 l 232 621 l 482 621 l 482 690 l 232 690 l 232 965 b 265 1001 232 989 250 1001 b 296 965 281 1001 296 989 l 296 764 l 486 764 l 486 965 b 318 1146 486 1096 433 1146 l 190 1146 b 35 965 81 1146 35 1100 l 35 690 l 3 690 z "},"£":{"ha":572,"x_min":0,"x_max":0,"o":"m 28 510 l 86 510 l 86 438 l 28 438 l 28 368 l 86 368 l 86 153 l 28 153 l 28 0 l 538 0 l 538 153 l 283 153 l 283 368 l 533 368 l 533 438 l 283 438 l 283 510 l 533 510 l 533 579 l 283 579 l 283 957 b 317 993 283 981 301 993 b 347 957 332 993 347 981 l 347 756 l 538 756 l 538 957 b 369 1138 538 1088 485 1138 l 242 1138 b 86 957 132 1138 86 1092 l 86 579 l 28 579 z "},"_":{"ha":528,"x_min":0,"x_max":0,"o":"m 0 -62 l 528 -62 l 528 63 l 0 63 z "},"±":{"ha":583,"x_min":0,"x_max":0,"o":"m 14 488 l 229 488 l 229 272 l 354 272 l 354 488 l 569 488 l 569 613 l 354 613 l 354 828 l 229 828 l 229 613 l 14 613 z m 14 72 l 569 72 l 569 197 l 14 197 z "},"È":{"ha":401,"x_min":0,"x_max":0,"o":"m 381 153 l 232 153 l 232 499 l 367 499 l 367 651 l 232 651 l 232 978 l 381 978 l 381 1131 l 35 1131 l 35 0 l 381 0 z m 186 1203 l 310 1203 l 203 1367 l -15 1367 z "},"É":{"ha":401,"x_min":0,"x_max":0,"o":"m 381 153 l 232 153 l 232 499 l 367 499 l 367 651 l 232 651 l 232 978 l 381 978 l 381 1131 l 35 1131 l 35 0 l 381 0 z m 224 1367 l 117 1203 l 240 1203 l 442 1367 z "},"À":{"ha":533,"x_min":0,"x_max":0,"o":"m 7 0 l 197 0 l 218 285 l 315 285 l 338 0 l 526 0 l 418 1131 l 119 1131 z m 267 936 l 304 438 l 229 438 z m 239 1203 l 363 1203 l 256 1367 l 38 1367 z "},"Á":{"ha":533,"x_min":0,"x_max":0,"o":"m 7 0 l 197 0 l 218 285 l 315 285 l 338 0 l 526 0 l 418 1131 l 119 1131 z m 267 936 l 304 438 l 229 438 z m 292 1367 l 185 1203 l 308 1203 l 510 1367 z "},"Ù":{"ha":529,"x_min":0,"x_max":0,"o":"m 296 168 b 264 133 296 146 279 133 b 232 168 249 133 232 146 l 232 1131 l 35 1131 l 35 168 b 201 -12 35 39 88 -12 l 338 -12 b 494 168 449 -12 494 33 l 494 1131 l 296 1131 z m 250 1203 l 374 1203 l 267 1367 l 49 1367 z "},"Ú":{"ha":529,"x_min":0,"x_max":0,"o":"m 296 168 b 264 133 296 146 279 133 b 232 168 249 133 232 146 l 232 1131 l 35 1131 l 35 168 b 201 -12 35 39 88 -12 l 338 -12 b 494 168 449 -12 494 33 l 494 1131 l 296 1131 z m 279 1367 l 172 1203 l 296 1203 l 497 1367 z "},"ò":{"ha":492,"x_min":0,"x_max":0,"o":"m 457 728 b 289 907 457 857 404 907 l 190 907 b 35 728 81 907 35 861 l 35 176 b 201 -4 35 46 88 -4 l 301 -4 b 457 176 411 -4 457 42 z m 274 161 b 244 125 274 138 260 125 b 217 161 229 125 217 138 l 217 743 b 246 778 217 765 231 778 b 274 743 261 778 274 765 z m 217 972 l 340 972 l 233 1136 l 15 1136 z "},"ó":{"ha":492,"x_min":0,"x_max":0,"o":"m 457 728 b 289 907 457 857 404 907 l 190 907 b 35 728 81 907 35 861 l 35 176 b 201 -4 35 46 88 -4 l 301 -4 b 457 176 411 -4 457 42 z m 274 161 b 244 125 274 138 260 125 b 217 161 229 125 217 138 l 217 743 b 246 778 217 765 231 778 b 274 743 261 778 274 765 z m 271 1136 l 164 972 l 288 972 l 489 1136 z "},"/":{"ha":485,"x_min":0,"x_max":0,"o":"m 326 1151 l 1 -19 l 160 -19 l 483 1151 z "},"'":{"ha":214,"x_min":0,"x_max":0,"o":"m 171 811 l 200 1131 l 14 1131 l 46 811 z "},"\"":{"ha":443,"x_min":0,"x_max":0,"o":"m 171 811 l 200 1131 l 14 1131 l 46 811 z m 400 811 l 429 1131 l 243 1131 l 275 811 z "},"º":{"ha":422,"x_min":0,"x_max":0,"o":"m 394 863 b 226 1042 394 992 342 1042 l 183 1042 b 28 863 74 1042 28 996 l 28 661 b 194 481 28 531 81 481 l 239 481 b 394 661 349 481 394 526 z m 239 646 b 210 610 239 622 225 610 b 182 646 194 610 182 622 l 182 878 b 211 913 182 900 196 913 b 239 878 226 913 239 900 z m 44 290 l 378 290 l 378 415 l 44 415 z "},"#":{"ha":1001,"x_min":0,"x_max":0,"o":"m 331 0 l 543 0 l 543 1131 l 360 1131 l 360 524 l 239 1131 l 35 1131 l 35 0 l 213 0 l 213 604 z m 974 763 b 806 942 974 892 921 942 l 763 942 b 607 763 653 942 607 896 l 607 561 b 774 381 607 431 660 381 l 818 381 b 974 561 928 381 974 426 z m 818 546 b 789 510 818 522 804 510 b 761 546 774 510 761 522 l 761 778 b 790 813 761 800 775 813 b 818 778 806 813 818 800 z m 624 190 l 957 190 l 957 315 l 624 315 z "},"Ø":{"ha":529,"x_min":0,"x_max":0,"o":"m 488 1188 l 454 1103 b 326 1146 426 1133 383 1146 l 190 1146 b 35 965 81 1146 35 1100 l 35 168 b 47 75 35 131 39 100 l 3 -39 l 43 -58 l 76 28 b 201 -12 104 0 144 -12 l 338 -12 b 494 168 449 -12 494 33 l 494 965 b 482 1056 494 1001 490 1032 l 526 1169 z m 232 965 b 265 1001 232 989 250 1001 b 296 965 281 1001 296 989 l 296 703 l 232 540 z m 296 168 b 264 133 296 146 279 133 b 232 168 249 133 232 146 l 232 421 l 296 583 z "},"ì":{"ha":251,"x_min":0,"x_max":0,"o":"m 35 0 l 217 0 l 217 900 l 35 900 z m 100 972 l 224 972 l 117 1136 l -101 1136 z "},"í":{"ha":251,"x_min":0,"x_max":0,"o":"m 35 0 l 217 0 l 217 900 l 35 900 z m 149 1136 l 42 972 l 165 972 l 367 1136 z "},"ø":{"ha":492,"x_min":0,"x_max":0,"o":"m 457 728 b 429 850 457 781 447 821 l 469 951 l 431 969 l 396 882 b 289 907 369 899 333 907 l 190 907 b 35 728 81 907 35 861 l 35 176 b 65 49 35 119 44 78 l 31 -39 l 71 -58 l 100 17 b 201 -4 126 1 160 -4 l 301 -4 b 457 176 411 -4 457 42 z m 217 743 b 246 778 217 765 231 778 b 274 743 261 778 274 765 l 274 574 l 217 431 z m 274 161 b 244 125 274 138 260 125 b 217 161 229 125 217 138 l 217 311 l 274 456 z "},"{":{"ha":376,"x_min":0,"x_max":0,"o":"m 267 953 b 299 988 267 975 281 988 l 354 988 l 354 1131 l 254 1131 b 97 951 144 1131 97 1085 l 97 693 b 67 658 96 672 81 658 l 21 658 l 21 511 l 65 511 b 97 476 81 511 97 499 l 97 179 b 254 0 97 46 144 0 l 356 0 l 356 143 l 299 143 b 267 178 281 143 267 156 l 267 410 b 157 586 267 522 233 574 b 267 764 233 600 267 650 z "},"}":{"ha":376,"x_min":0,"x_max":0,"o":"m 110 764 b 219 586 110 650 143 600 b 110 410 143 574 110 522 l 110 178 b 78 143 110 156 96 143 l 21 143 l 21 0 l 122 0 b 279 179 232 0 279 46 l 279 476 b 311 511 279 499 296 511 l 356 511 l 356 658 l 310 658 b 279 693 296 658 281 672 l 279 951 b 122 1131 279 1085 232 1131 l 22 1131 l 22 988 l 78 988 b 110 953 96 988 110 975 z "},"\\":{"ha":485,"x_min":0,"x_max":0,"o":"m 1 1151 l 325 -19 l 483 -19 l 158 1151 z "},"*":{"ha":351,"x_min":0,"x_max":0,"o":"m 139 1131 l 139 1032 l 44 1063 l 18 990 l 110 956 l 53 872 l 117 826 l 176 908 l 239 826 l 300 872 l 243 953 l 333 990 l 306 1063 l 215 1032 l 215 1131 z "},"Ł":{"ha":426,"x_min":0,"x_max":0,"o":"m 0 342 l 72 372 l 72 0 l 413 0 l 413 153 l 269 153 l 269 458 l 385 510 l 385 635 l 269 583 l 269 1131 l 72 1131 l 72 497 l 0 467 z "},"ł":{"ha":306,"x_min":0,"x_max":0,"o":"m 306 607 l 244 579 l 244 1131 l 63 1131 l 63 500 l 0 472 l 0 347 l 63 375 l 63 0 l 244 0 l 244 454 l 306 482 z "},"•":{"ha":375,"x_min":0,"x_max":0,"o":"m 340 614 b 188 763 340 686 276 763 b 35 608 103 763 35 693 b 188 457 35 524 104 457 b 340 614 268 457 340 522 z "},"«":{"ha":560,"x_min":0,"x_max":0,"o":"m 21 458 l 169 108 l 314 108 l 167 458 l 314 789 l 169 789 z m 244 458 l 393 108 l 539 108 l 390 458 l 539 789 l 393 789 z "},"»":{"ha":560,"x_min":0,"x_max":0,"o":"m 390 789 l 246 789 l 393 458 l 246 108 l 390 108 l 539 458 z m 167 789 l 21 789 l 169 458 l 21 108 l 167 108 l 315 458 z "},"›":{"ha":336,"x_min":0,"x_max":0,"o":"m 167 789 l 21 789 l 169 458 l 21 108 l 167 108 l 315 458 z "},"‹":{"ha":336,"x_min":0,"x_max":0,"o":"m 21 458 l 169 108 l 315 108 l 167 458 l 315 789 l 169 789 z "},"Æ":{"ha":728,"x_min":0,"x_max":0,"o":"m 707 153 l 558 153 l 558 499 l 693 499 l 693 651 l 558 651 l 558 978 l 707 978 l 707 1131 l 214 1131 l 7 0 l 197 0 l 247 285 l 361 285 l 361 0 l 707 0 z m 361 936 l 361 438 l 274 438 z "},"?":{"ha":482,"x_min":0,"x_max":0,"o":"m 288 231 l 288 364 b 454 754 288 496 454 483 l 454 960 b 297 1139 454 1093 407 1139 l 189 1139 b 28 960 74 1139 28 1089 l 28 763 l 206 763 l 206 961 b 236 996 206 983 219 996 b 268 961 254 996 268 983 l 268 788 b 106 403 268 576 106 613 l 106 231 z m 288 168 l 106 168 l 106 0 l 288 0 z "},"¿":{"ha":447,"x_min":0,"x_max":0,"o":"m 181 700 l 181 567 b 14 176 181 435 14 447 l 14 -29 b 171 -208 14 -162 61 -208 l 279 -208 b 440 -29 394 -208 440 -158 l 440 168 l 263 168 l 263 -31 b 232 -65 263 -53 249 -65 b 200 -31 214 -65 200 -53 l 200 143 b 363 528 200 354 363 318 l 363 700 z m 181 763 l 363 763 l 363 931 l 181 931 z "},"%":{"ha":953,"x_min":0,"x_max":0,"o":"m 636 1131 l 188 0 l 318 0 l 765 1131 z m 394 958 b 226 1138 394 1088 342 1138 l 183 1138 b 28 958 74 1138 28 1092 l 28 757 b 194 576 28 626 81 576 l 239 576 b 394 757 349 576 394 622 z m 239 742 b 210 706 239 718 225 706 b 182 742 194 706 182 718 l 182 974 b 211 1008 182 996 196 1008 b 239 974 226 1008 239 996 z m 925 375 b 757 554 925 504 872 554 l 714 554 b 558 375 604 554 558 508 l 558 174 b 725 -7 558 43 611 -7 l 769 -7 b 925 174 879 -7 925 39 z m 769 158 b 740 122 769 135 756 122 b 713 158 725 122 713 135 l 713 390 b 742 425 713 413 726 425 b 769 390 757 425 769 413 z "},"‰":{"ha":1375,"x_min":0,"x_max":0,"o":"m 636 1131 l 188 0 l 318 0 l 765 1131 z m 394 958 b 226 1138 394 1088 342 1138 l 183 1138 b 28 958 74 1138 28 1092 l 28 757 b 194 576 28 626 81 576 l 239 576 b 394 757 349 576 394 622 z m 239 742 b 210 706 239 718 225 706 b 182 742 194 706 182 718 l 182 974 b 211 1008 182 996 196 1008 b 239 974 226 1008 239 996 z m 925 375 b 757 554 925 504 872 554 l 714 554 b 558 375 604 554 558 508 l 558 174 b 725 -7 558 43 611 -7 l 769 -7 b 925 174 879 -7 925 39 z m 769 158 b 740 122 769 135 756 122 b 713 158 725 122 713 135 l 713 390 b 742 425 713 413 726 425 b 769 390 757 425 769 413 z m 1347 375 b 1179 554 1347 504 1294 554 l 1136 554 b 981 375 1026 554 981 508 l 981 174 b 1147 -7 981 43 1033 -7 l 1192 -7 b 1347 174 1301 -7 1347 39 z m 1192 158 b 1163 122 1192 135 1178 122 b 1135 158 1147 122 1135 135 l 1135 390 b 1164 425 1135 413 1149 425 b 1192 390 1179 425 1192 413 z "},"©":{"ha":1175,"x_min":0,"x_max":0,"o":"m 572 1132 b 21 567 301 1132 21 900 b 588 0 21 253 274 0 b 1154 567 900 0 1154 253 b 572 1132 1154 869 915 1132 z m 597 990 b 1013 567 801 990 1013 815 b 588 142 1013 331 821 142 b 164 567 351 142 164 331 b 597 990 164 792 339 990 z m 618 397 b 589 361 618 374 604 361 b 561 397 574 361 561 374 l 561 729 b 590 764 561 751 575 764 b 618 729 606 764 618 751 l 618 665 l 794 665 l 794 714 b 633 893 794 843 749 893 l 535 893 b 379 714 425 893 379 847 l 379 413 b 546 232 379 282 432 232 l 646 232 b 794 413 756 232 794 278 l 794 488 l 618 488 z "},"®":{"ha":533,"x_min":0,"x_max":0,"o":"m 788 378 b 678 554 788 490 754 542 b 788 732 754 568 788 618 l 788 760 b 675 885 788 835 733 885 l 383 885 l 383 240 l 553 240 l 553 493 l 585 493 b 617 458 600 493 617 481 l 617 240 l 788 240 z m 617 647 b 585 613 617 625 600 613 l 553 613 l 553 768 l 586 768 b 617 732 601 768 617 756 z m 572 1132 b 21 567 301 1132 21 900 b 588 0 21 253 274 0 b 1154 567 900 0 1154 253 b 572 1132 1154 869 915 1132 z m 597 990 b 1013 567 801 990 1013 815 b 588 142 1013 331 821 142 b 164 567 351 142 164 331 b 597 990 164 792 339 990 z "},"<":{"ha":419,"x_min":0,"x_max":0,"o":"m 21 538 l 211 188 l 399 188 l 208 538 l 399 868 l 211 868 z "},">":{"ha":419,"x_min":0,"x_max":0,"o":"m 208 868 l 21 868 l 211 538 l 21 188 l 208 188 l 399 538 z "},"⁄":{"ha":576,"x_min":0,"x_max":0,"o":"m 449 1131 l 0 0 l 131 0 l 578 1131 z "},"¯":{"ha":528,"x_min":0,"x_max":0,"o":"m 21 1076 l 21 972 l 507 972 l 507 1076 z "},"°":{"ha":432,"x_min":0,"x_max":0,"o":"m 21 896 b 217 706 21 803 101 706 b 411 900 324 706 411 793 b 217 1094 411 1008 324 1094 b 21 896 111 1094 21 1013 z m 122 901 b 217 993 122 946 161 993 b 308 900 267 993 308 951 b 217 807 308 849 267 807 b 122 901 167 807 122 846 z "},"@":{"ha":1175,"x_min":0,"x_max":0,"o":"m 572 1132 b 21 567 301 1132 21 900 b 588 0 21 253 274 0 b 1154 567 900 0 1154 253 b 572 1132 1154 869 915 1132 z m 597 990 b 1013 567 801 990 1013 815 b 588 142 1013 331 821 142 b 164 567 351 142 164 331 b 597 990 164 792 339 990 z m 378 411 b 511 240 378 271 435 240 b 617 285 543 240 588 256 l 632 249 l 800 249 l 800 872 l 617 872 l 617 840 b 511 885 588 869 543 885 b 378 715 435 885 378 854 z m 617 414 b 588 379 617 390 603 379 b 560 414 572 379 560 390 l 560 711 b 588 747 560 735 572 747 b 617 711 603 747 617 735 z "},"™":{"ha":1004,"x_min":0,"x_max":0,"o":"m 122 500 l 279 500 l 279 1006 l 388 1006 l 388 1131 l 14 1131 l 14 1006 l 122 1006 z m 822 914 l 822 500 l 976 500 l 976 1131 l 804 1131 l 713 888 l 622 1131 l 436 1131 l 436 500 l 576 500 l 576 914 l 671 500 l 729 500 z "},"ß":{"ha":500,"x_min":0,"x_max":0,"o":"m 219 950 b 250 986 219 974 235 986 b 281 950 265 986 281 974 l 281 796 b 251 761 281 775 265 761 l 243 761 l 243 614 l 249 614 b 281 579 264 614 281 601 l 281 176 b 250 140 281 153 265 140 l 242 140 l 242 -4 l 297 -4 b 465 176 411 -4 465 46 l 465 513 b 356 689 465 625 432 676 b 465 867 432 703 465 753 l 465 950 b 297 1131 465 1081 411 1131 l 203 1131 b 35 950 89 1131 35 1081 l 35 0 l 219 0 z "},"ð":{"ha":492,"x_min":0,"x_max":0,"o":"m 206 968 l 267 997 b 274 907 272 972 274 943 l 190 907 b 35 728 81 907 35 861 l 35 176 b 201 -4 35 46 88 -4 l 301 -4 b 457 176 411 -4 457 42 l 457 892 b 415 1069 457 972 447 1028 l 471 1096 l 456 1131 l 388 1097 b 319 1139 369 1113 347 1126 l 199 1083 b 251 1032 224 1067 240 1050 l 189 1001 z m 274 161 b 244 125 274 138 260 125 b 217 161 229 125 217 138 l 217 743 b 246 778 217 765 231 778 b 274 743 261 778 274 765 z "},"¶":{"ha":686,"x_min":0,"x_max":0,"o":"m 540 -135 l 651 -135 l 651 989 l 203 989 b 35 808 89 989 35 939 l 35 447 b 297 278 35 301 85 278 l 297 -135 l 461 -135 l 461 847 l 540 847 z "},"":{"ha":251,"x_min":0,"x_max":0,"o":"m 217 -97 l 35 -97 l 35 -265 l 111 -265 l 63 -460 l 217 -265 z "},"Ą":{"ha":533,"x_min":0,"x_max":0,"o":"m 485 -110 b 415 -125 467 -117 443 -125 b 371 -86 386 -125 371 -110 b 426 0 371 -60 394 -32 l 526 0 l 418 1131 l 119 1131 l 7 0 l 197 0 l 218 285 l 315 285 l 338 0 b 282 -103 304 -31 282 -61 b 404 -199 282 -158 328 -199 b 510 -171 454 -199 485 -182 z m 267 936 l 304 438 l 229 438 z "},"Ľ":{"ha":444,"x_min":0,"x_max":0,"o":"m 35 0 l 375 0 l 375 153 l 232 153 l 232 1131 l 35 1131 z m 493 1131 l 311 1131 l 311 963 l 388 963 l 339 768 l 493 963 z "},"Ś":{"ha":519,"x_min":0,"x_max":0,"o":"m 293 167 b 261 132 293 144 279 132 b 231 167 243 132 231 144 l 231 404 l 42 404 l 42 168 b 201 -12 42 39 88 -12 l 328 -12 b 485 168 438 -12 485 35 l 485 403 b 231 788 485 613 231 660 l 231 968 b 263 1003 231 990 244 1003 b 293 968 279 1003 293 990 l 293 763 l 478 763 l 478 967 b 317 1146 478 1096 432 1146 l 192 1146 b 35 967 82 1146 35 1100 l 35 754 b 293 364 35 567 293 496 z m 283 1367 l 176 1203 l 300 1203 l 501 1367 z "},"ż":{"ha":381,"x_min":0,"x_max":0,"o":"m 14 0 l 367 0 l 367 125 l 192 125 l 367 760 l 367 900 l 26 900 l 26 775 l 189 775 l 14 142 z m 113 1131 l 113 972 l 268 972 l 268 1131 z "},"ș":{"ha":464,"x_min":0,"x_max":0,"o":"m 260 157 b 231 122 260 135 246 122 b 203 157 215 122 203 135 l 203 326 l 28 326 l 28 172 b 188 -8 28 43 74 -8 l 286 -8 b 443 172 396 -8 443 39 l 443 308 b 203 640 443 518 203 513 l 203 743 b 232 778 203 765 217 778 b 260 743 247 778 260 765 l 260 601 l 436 601 l 436 728 b 275 907 436 857 390 907 l 178 907 b 21 728 68 907 21 861 l 21 607 b 260 286 21 419 260 418 z m 325 -97 l 143 -97 l 143 -265 l 219 -265 l 171 -460 l 325 -265 z "},"ť":{"ha":519,"x_min":0,"x_max":0,"o":"m 14 775 l 60 775 l 60 164 b 167 0 60 58 75 0 l 308 0 l 308 125 l 271 125 b 243 161 256 125 243 138 l 243 775 l 306 775 l 306 900 l 243 900 l 243 1021 l 60 1021 l 60 900 l 14 900 z m 539 1131 l 357 1131 l 357 963 l 433 963 l 385 768 l 539 963 z "},"ź":{"ha":381,"x_min":0,"x_max":0,"o":"m 14 0 l 367 0 l 367 125 l 192 125 l 367 760 l 367 900 l 26 900 l 26 775 l 189 775 l 14 142 z m 218 1136 l 111 972 l 235 972 l 436 1136 z "},"Đ":{"ha":535,"x_min":0,"x_max":0,"o":"m 0 503 l 35 503 l 35 0 l 338 0 b 494 181 449 0 494 46 l 494 950 b 326 1131 494 1081 440 1131 l 35 1131 l 35 628 l 0 628 z m 296 181 b 264 146 296 158 279 146 l 232 146 l 232 503 l 264 503 l 264 628 l 232 628 l 232 986 l 265 986 b 296 950 281 986 296 974 z "},"Ď":{"ha":535,"x_min":0,"x_max":0,"o":"m 494 950 b 326 1131 494 1081 440 1131 l 35 1131 l 35 0 l 338 0 b 494 181 449 0 494 46 z m 296 181 b 264 146 296 158 279 146 l 232 146 l 232 986 l 265 986 b 296 950 281 986 296 974 z m 192 1375 l 19 1375 l 178 1203 l 349 1203 l 496 1375 l 331 1375 l 263 1294 z "},"Ń":{"ha":578,"x_min":0,"x_max":0,"o":"m 331 0 l 543 0 l 543 1131 l 360 1131 l 360 524 l 239 1131 l 35 1131 l 35 0 l 213 0 l 213 604 z m 315 1367 l 208 1203 l 332 1203 l 533 1367 z "},"Ň":{"ha":578,"x_min":0,"x_max":0,"o":"m 331 0 l 543 0 l 543 1131 l 360 1131 l 360 524 l 239 1131 l 35 1131 l 35 0 l 213 0 l 213 604 z m 222 1375 l 50 1375 l 208 1203 l 379 1203 l 526 1375 l 361 1375 l 293 1294 z "},"Ő":{"ha":529,"x_min":0,"x_max":0,"o":"m 494 965 b 326 1146 494 1096 440 1146 l 190 1146 b 35 965 81 1146 35 1100 l 35 168 b 201 -12 35 39 88 -12 l 338 -12 b 494 168 449 -12 494 33 z m 296 168 b 264 133 296 146 279 133 b 232 168 249 133 232 146 l 232 965 b 265 1001 232 989 250 1001 b 296 965 281 1001 296 989 z m 161 1392 l 89 1204 l 179 1204 l 326 1392 z m 371 1392 l 299 1204 l 389 1204 l 536 1392 z "},"ě":{"ha":483,"x_min":0,"x_max":0,"o":"m 272 161 b 243 125 272 138 258 125 b 215 161 228 125 215 138 l 215 414 l 449 414 l 449 728 b 281 907 449 857 394 907 l 190 907 b 35 728 81 907 35 861 l 35 176 b 201 -4 35 46 88 -4 l 300 -4 b 449 176 410 -4 449 42 l 449 335 l 272 335 z m 215 743 b 244 778 215 765 229 778 b 272 743 260 778 272 765 l 272 529 l 215 529 z m 175 1144 l 3 1144 l 161 972 l 332 972 l 479 1144 l 314 1144 l 246 1064 z "},"ď":{"ha":683,"x_min":0,"x_max":0,"o":"m 35 163 b 168 -8 35 22 92 -8 b 274 36 200 -8 244 7 l 289 0 l 457 0 l 457 1131 l 274 1131 l 274 868 b 168 913 244 897 200 913 b 35 743 92 913 35 882 z m 274 165 b 244 131 274 142 260 131 b 217 165 229 131 217 142 l 217 739 b 244 775 217 763 229 775 b 274 739 260 775 274 763 z m 708 1131 l 526 1131 l 526 963 l 603 963 l 554 768 l 708 963 z "},"ę":{"ha":483,"x_min":0,"x_max":0,"o":"m 396 -106 b 326 -121 378 -112 354 -121 b 282 -82 297 -121 282 -106 b 331 -3 282 -58 301 -32 b 449 176 417 6 449 56 l 449 335 l 272 335 l 272 161 b 243 125 272 138 258 125 b 215 161 228 125 215 138 l 215 414 l 449 414 l 449 728 b 281 907 449 857 394 907 l 190 907 b 35 728 81 907 35 861 l 35 176 b 201 -4 35 46 88 -4 l 240 -4 b 193 -99 213 -32 193 -60 b 315 -194 193 -154 239 -194 b 421 -167 365 -194 396 -178 z m 215 743 b 244 778 215 765 229 778 b 272 743 260 778 272 765 l 272 529 l 215 529 z "},"č":{"ha":478,"x_min":0,"x_max":0,"o":"m 274 161 b 244 125 274 138 260 125 b 217 161 229 125 217 138 l 217 743 b 246 778 217 765 231 778 b 274 743 261 778 274 765 l 274 596 l 450 596 l 450 728 b 289 907 450 857 404 907 l 190 907 b 35 728 81 907 35 861 l 35 176 b 201 -4 35 46 88 -4 l 301 -4 b 450 176 411 -4 450 42 l 450 335 l 274 335 z m 172 1144 l 0 1144 l 158 972 l 329 972 l 476 1144 l 311 1144 l 243 1064 z "},"ć":{"ha":478,"x_min":0,"x_max":0,"o":"m 274 161 b 244 125 274 138 260 125 b 217 161 229 125 217 138 l 217 743 b 246 778 217 765 231 778 b 274 743 261 778 274 765 l 274 596 l 450 596 l 450 728 b 289 907 450 857 404 907 l 190 907 b 35 728 81 907 35 861 l 35 176 b 201 -4 35 46 88 -4 l 301 -4 b 450 176 411 -4 450 42 l 450 335 l 274 335 z m 264 1136 l 157 972 l 281 972 l 482 1136 z "},"ĺ":{"ha":251,"x_min":0,"x_max":0,"o":"m 35 0 l 217 0 l 217 1131 l 35 1131 z m 111 1375 l 4 1211 l 128 1211 l 329 1375 z "},"ţ":{"ha":322,"x_min":0,"x_max":0,"o":"m 14 775 l 60 775 l 60 164 b 167 0 60 58 75 0 l 308 0 l 308 125 l 271 125 b 243 161 256 125 243 138 l 243 775 l 306 775 l 306 900 l 243 900 l 243 1021 l 60 1021 l 60 900 l 14 900 z m 279 -97 l 97 -97 l 97 -265 l 174 -265 l 125 -460 l 279 -265 z "},"ű":{"ha":492,"x_min":0,"x_max":0,"o":"m 274 161 b 244 125 274 138 260 125 b 217 161 229 125 217 138 l 217 900 l 35 900 l 35 157 b 168 -12 35 18 92 -12 b 276 29 200 -12 249 0 l 290 0 l 457 0 l 457 900 l 274 900 z m 167 1161 l 94 974 l 185 974 l 332 1161 z m 376 1161 l 304 974 l 394 974 l 542 1161 z "},"ă":{"ha":486,"x_min":0,"x_max":0,"o":"m 451 0 l 451 728 b 301 907 451 861 411 907 l 196 907 b 36 728 82 907 36 857 l 36 601 l 211 601 l 211 743 b 239 778 211 765 224 778 b 268 743 254 778 268 765 l 268 549 b 28 368 139 529 28 517 l 28 157 b 163 -12 28 18 86 -12 b 271 29 194 -12 242 0 l 285 0 z m 211 385 b 268 421 211 408 233 419 l 268 161 b 239 125 268 138 254 125 b 211 161 224 125 211 138 z m 69 1157 b 242 972 78 1035 140 972 b 415 1157 343 972 407 1035 l 313 1157 b 242 1072 306 1110 292 1072 b 174 1157 192 1072 179 1110 z "},"Ě":{"ha":401,"x_min":0,"x_max":0,"o":"m 381 153 l 232 153 l 232 499 l 367 499 l 367 651 l 232 651 l 232 978 l 381 978 l 381 1131 l 35 1131 l 35 0 l 381 0 z m 135 1375 l -37 1375 l 121 1203 l 292 1203 l 439 1375 l 274 1375 l 206 1294 z "},"ľ":{"ha":436,"x_min":0,"x_max":0,"o":"m 35 0 l 217 0 l 217 1131 l 35 1131 z m 468 1131 l 286 1131 l 286 963 l 363 963 l 314 768 l 468 963 z "},"ś":{"ha":464,"x_min":0,"x_max":0,"o":"m 260 157 b 231 122 260 135 246 122 b 203 157 215 122 203 135 l 203 326 l 28 326 l 28 172 b 188 -8 28 43 74 -8 l 286 -8 b 443 172 396 -8 443 39 l 443 308 b 203 640 443 518 203 513 l 203 743 b 232 778 203 765 217 778 b 260 743 247 778 260 765 l 260 601 l 436 601 l 436 728 b 275 907 436 857 390 907 l 178 907 b 21 728 68 907 21 861 l 21 607 b 260 286 21 419 260 418 z m 254 1136 l 147 972 l 271 972 l 472 1136 z "},"ą":{"ha":486,"x_min":0,"x_max":0,"o":"m 438 -106 b 368 -121 419 -112 396 -121 b 324 -82 339 -121 324 -106 b 375 0 324 -57 344 -31 l 451 0 l 451 728 b 301 907 451 861 411 907 l 196 907 b 36 728 82 907 36 857 l 36 601 l 211 601 l 211 743 b 239 778 211 765 224 778 b 268 743 254 778 268 765 l 268 549 b 28 368 139 529 28 517 l 28 157 b 163 -12 28 18 86 -12 b 271 29 194 -12 242 0 l 286 0 b 235 -99 257 -29 235 -58 b 357 -194 235 -154 281 -194 b 463 -167 407 -194 438 -178 z m 211 385 b 268 421 211 408 233 419 l 268 161 b 239 125 268 138 254 125 b 211 161 224 125 211 138 z "},"Ę":{"ha":401,"x_min":0,"x_max":0,"o":"m 356 -106 b 286 -121 338 -112 314 -121 b 242 -82 257 -121 242 -106 b 293 0 242 -57 263 -31 l 381 0 l 381 153 l 232 153 l 232 499 l 367 499 l 367 651 l 232 651 l 232 978 l 381 978 l 381 1131 l 35 1131 l 35 0 l 204 0 b 153 -99 174 -29 153 -58 b 275 -194 153 -154 199 -194 b 381 -167 325 -194 356 -178 z "},"Č":{"ha":514,"x_min":0,"x_max":0,"o":"m 296 168 b 264 133 296 146 279 133 b 232 168 249 133 232 146 l 232 965 b 265 1001 232 989 250 1001 b 296 965 281 1001 296 989 l 296 764 l 486 764 l 486 965 b 318 1146 486 1096 433 1146 l 190 1146 b 35 965 81 1146 35 1100 l 35 168 b 201 -12 35 39 88 -12 l 331 -12 b 486 168 440 -12 486 33 l 486 410 l 296 410 z m 190 1375 l 18 1375 l 176 1203 l 347 1203 l 494 1375 l 329 1375 l 261 1294 z "},"ŕ":{"ha":471,"x_min":0,"x_max":0,"o":"m 217 739 b 246 775 217 763 231 775 b 274 739 261 775 274 763 l 274 535 l 450 535 l 450 743 b 322 913 450 882 399 913 b 214 871 290 913 253 900 l 200 900 l 35 900 l 35 0 l 217 0 z m 246 1136 l 139 972 l 263 972 l 464 1136 z "},"ř":{"ha":471,"x_min":0,"x_max":0,"o":"m 217 739 b 246 775 217 763 231 775 b 274 739 261 775 274 763 l 274 535 l 450 535 l 450 743 b 322 913 450 882 399 913 b 214 871 290 913 253 900 l 200 900 l 35 900 l 35 0 l 217 0 z m 169 1144 l -3 1144 l 156 972 l 326 972 l 474 1144 l 308 1144 l 240 1064 z "},"ů":{"ha":492,"x_min":0,"x_max":0,"o":"m 274 161 b 244 125 274 138 260 125 b 217 161 229 125 217 138 l 217 900 l 35 900 l 35 157 b 168 -12 35 18 92 -12 b 276 29 200 -12 249 0 l 290 0 l 457 0 l 457 900 l 274 900 z m 244 1228 b 117 1100 174 1228 117 1172 b 244 972 117 1029 174 972 b 374 1100 315 972 374 1029 b 244 1228 374 1172 317 1228 z m 243 1149 b 294 1099 271 1149 294 1125 b 243 1047 294 1071 271 1047 b 193 1099 217 1047 193 1069 b 243 1149 193 1126 217 1149 z "},"Ș":{"ha":519,"x_min":0,"x_max":0,"o":"m 293 167 b 261 132 293 144 279 132 b 231 167 243 132 231 144 l 231 404 l 42 404 l 42 168 b 201 -12 42 39 88 -12 l 328 -12 b 485 168 438 -12 485 35 l 485 403 b 231 788 485 613 231 660 l 231 968 b 263 1003 231 990 244 1003 b 293 968 279 1003 293 990 l 293 763 l 478 763 l 478 967 b 317 1146 478 1096 432 1146 l 192 1146 b 35 967 82 1146 35 1100 l 35 754 b 293 364 35 567 293 496 z m 356 -97 l 174 -97 l 174 -265 l 250 -265 l 201 -460 l 356 -265 z "},"Ť":{"ha":443,"x_min":0,"x_max":0,"o":"m 122 0 l 321 0 l 321 978 l 429 978 l 429 1131 l 14 1131 l 14 978 l 122 978 z m 156 1375 l -17 1375 l 142 1203 l 313 1203 l 460 1375 l 294 1375 l 226 1294 z "},"Ź":{"ha":422,"x_min":0,"x_max":0,"o":"m 21 0 l 401 0 l 401 139 l 213 139 l 401 976 l 401 1131 l 28 1131 l 28 992 l 210 992 l 21 156 z m 233 1367 l 126 1203 l 250 1203 l 451 1367 z "},"Ĺ":{"ha":389,"x_min":0,"x_max":0,"o":"m 35 0 l 375 0 l 375 153 l 232 153 l 232 1131 l 35 1131 z m 164 1367 l 57 1203 l 181 1203 l 382 1367 z "},"Ć":{"ha":514,"x_min":0,"x_max":0,"o":"m 296 168 b 264 133 296 146 279 133 b 232 168 249 133 232 146 l 232 965 b 265 1001 232 989 250 1001 b 296 965 281 1001 296 989 l 296 764 l 486 764 l 486 965 b 318 1146 486 1096 433 1146 l 190 1146 b 35 965 81 1146 35 1100 l 35 168 b 201 -12 35 39 88 -12 l 331 -12 b 486 168 440 -12 486 33 l 486 410 l 296 410 z m 279 1367 l 172 1203 l 296 1203 l 497 1367 z "},"Ż":{"ha":422,"x_min":0,"x_max":0,"o":"m 21 0 l 401 0 l 401 139 l 213 139 l 401 976 l 401 1131 l 28 1131 l 28 992 l 210 992 l 21 156 z m 133 1361 l 133 1203 l 289 1203 l 289 1361 z "},"Ţ":{"ha":443,"x_min":0,"x_max":0,"o":"m 122 0 l 321 0 l 321 978 l 429 978 l 429 1131 l 14 1131 l 14 978 l 122 978 z m 313 -97 l 131 -97 l 131 -265 l 207 -265 l 158 -460 l 313 -265 z "},"ő":{"ha":492,"x_min":0,"x_max":0,"o":"m 457 728 b 289 907 457 857 404 907 l 190 907 b 35 728 81 907 35 861 l 35 176 b 201 -4 35 46 88 -4 l 301 -4 b 457 176 411 -4 457 42 z m 274 161 b 244 125 274 138 260 125 b 217 161 229 125 217 138 l 217 743 b 246 778 217 765 231 778 b 274 743 261 778 274 765 z m 158 1161 l 86 974 l 176 974 l 324 1161 z m 368 1161 l 296 974 l 386 974 l 533 1161 z "},"đ":{"ha":492,"x_min":0,"x_max":0,"o":"m 160 990 l 274 990 l 274 868 b 168 913 244 897 200 913 b 35 743 92 913 35 882 l 35 163 b 168 -8 35 22 92 -8 b 274 36 200 -8 244 7 l 289 0 l 457 0 l 457 990 l 492 990 l 492 1061 l 457 1061 l 457 1131 l 274 1131 l 274 1061 l 160 1061 z m 274 165 b 244 131 274 142 260 131 b 217 165 229 131 217 142 l 217 739 b 244 775 217 763 229 775 b 274 739 260 775 274 763 z "},"ń":{"ha":492,"x_min":0,"x_max":0,"o":"m 217 739 b 246 775 217 763 231 775 b 274 739 261 775 274 763 l 274 0 l 457 0 l 457 743 b 322 913 457 882 399 913 b 214 871 290 913 243 900 l 199 900 l 35 900 l 35 0 l 217 0 z m 274 1136 l 167 972 l 290 972 l 492 1136 z "},"ň":{"ha":492,"x_min":0,"x_max":0,"o":"m 217 739 b 246 775 217 763 231 775 b 274 739 261 775 274 763 l 274 0 l 457 0 l 457 743 b 322 913 457 882 399 913 b 214 871 290 913 243 900 l 199 900 l 35 900 l 35 0 l 217 0 z m 179 1144 l 7 1144 l 165 972 l 336 972 l 483 1144 l 318 1144 l 250 1064 z "},"Ř":{"ha":533,"x_min":0,"x_max":0,"o":"m 494 346 b 385 522 494 458 461 510 b 494 700 461 536 494 586 l 494 950 b 326 1131 494 1081 440 1131 l 35 1131 l 35 0 l 232 0 l 232 447 l 264 447 b 296 413 279 447 296 435 l 296 0 l 494 0 z m 296 629 b 264 594 296 607 279 594 l 232 594 l 232 986 l 265 986 b 296 950 281 986 296 974 z m 186 1375 l 14 1375 l 172 1203 l 343 1203 l 490 1375 l 325 1375 l 257 1294 z "},"Ů":{"ha":529,"x_min":0,"x_max":0,"o":"m 296 168 b 264 133 296 146 279 133 b 232 168 249 133 232 146 l 232 1131 l 35 1131 l 35 168 b 201 -12 35 39 88 -12 l 338 -12 b 494 168 449 -12 494 33 l 494 1131 l 296 1131 z m 264 1458 b 136 1331 193 1458 136 1403 b 264 1203 136 1260 193 1203 b 393 1331 335 1203 393 1260 b 264 1458 393 1403 336 1458 z m 263 1379 b 314 1329 290 1379 314 1356 b 263 1278 314 1301 290 1278 b 213 1329 236 1278 213 1300 b 263 1379 213 1357 236 1379 z "},"Ű":{"ha":529,"x_min":0,"x_max":0,"o":"m 296 168 b 264 133 296 146 279 133 b 232 168 249 133 232 146 l 232 1131 l 35 1131 l 35 168 b 201 -12 35 39 88 -12 l 338 -12 b 494 168 449 -12 494 33 l 494 1131 l 296 1131 z m 175 1392 l 103 1204 l 193 1204 l 340 1392 z m 385 1392 l 313 1204 l 403 1204 l 550 1392 z "},"Ă":{"ha":533,"x_min":0,"x_max":0,"o":"m 7 0 l 197 0 l 218 285 l 315 285 l 338 0 l 526 0 l 418 1131 l 119 1131 z m 267 936 l 304 438 l 229 438 z m 93 1388 b 265 1203 101 1265 164 1203 b 439 1388 367 1203 431 1265 l 336 1388 b 265 1303 329 1340 315 1303 b 197 1388 215 1303 203 1340 z "},"Ŕ":{"ha":533,"x_min":0,"x_max":0,"o":"m 494 346 b 385 522 494 458 461 510 b 494 700 461 536 494 586 l 494 950 b 326 1131 494 1081 440 1131 l 35 1131 l 35 0 l 232 0 l 232 447 l 264 447 b 296 413 279 447 296 435 l 296 0 l 494 0 z m 296 629 b 264 594 296 607 279 594 l 232 594 l 232 986 l 265 986 b 296 950 281 986 296 974 z m 261 1367 l 154 1203 l 278 1203 l 479 1367 z "},"Ħ":{"ha":529,"x_min":0,"x_max":0,"o":"m 296 0 l 494 0 l 494 851 l 529 851 l 529 956 l 494 956 l 494 1131 l 296 1131 l 296 956 l 232 956 l 232 1131 l 35 1131 l 35 956 l 0 956 l 0 851 l 35 851 l 35 0 l 232 0 l 232 499 l 296 499 z m 232 651 l 232 851 l 296 851 l 296 651 z "},"Ĥ":{"ha":529,"x_min":0,"x_max":0,"o":"m 296 0 l 494 0 l 494 1131 l 296 1131 l 296 651 l 232 651 l 232 1131 l 35 1131 l 35 0 l 232 0 l 232 499 l 296 499 z m 338 1203 l 503 1203 l 356 1375 l 185 1375 l 26 1203 l 199 1203 l 269 1282 z "},"İ":{"ha":267,"x_min":0,"x_max":0,"o":"m 35 0 l 232 0 l 232 1131 l 35 1131 z m 56 1361 l 56 1203 l 211 1203 l 211 1361 z "},"Ş":{"ha":519,"x_min":0,"x_max":0,"o":"m 240 -117 b 293 -157 272 -117 293 -131 b 258 -193 293 -181 279 -193 b 225 -168 240 -193 232 -182 l 135 -168 b 256 -264 153 -232 201 -264 b 385 -150 329 -264 385 -210 b 297 -69 385 -106 353 -72 l 297 -12 l 328 -12 b 485 168 438 -12 485 35 l 485 403 b 231 788 485 613 231 660 l 231 968 b 263 1003 231 990 244 1003 b 293 968 279 1003 293 990 l 293 763 l 478 763 l 478 967 b 317 1146 478 1096 432 1146 l 192 1146 b 35 967 82 1146 35 1100 l 35 754 b 293 364 35 567 293 496 l 293 167 b 261 132 293 144 279 132 b 231 167 243 132 231 144 l 231 404 l 42 404 l 42 168 b 201 -12 42 39 88 -12 l 225 -12 l 225 -117 z "},"Ğ":{"ha":522,"x_min":0,"x_max":0,"o":"m 494 558 l 261 558 l 261 404 l 296 404 l 296 168 b 264 133 296 146 279 133 b 232 168 249 133 232 146 l 232 965 b 265 1001 232 989 250 1001 b 296 965 281 1001 296 989 l 296 764 l 486 764 l 486 965 b 318 1146 486 1096 433 1146 l 190 1146 b 35 965 81 1146 35 1100 l 35 168 b 201 -12 35 39 88 -12 l 338 -12 b 494 168 449 -12 494 33 z m 88 1388 b 260 1203 96 1265 158 1203 b 433 1388 361 1203 425 1265 l 331 1388 b 260 1303 324 1340 310 1303 b 192 1388 210 1303 197 1340 z "},"Ĵ":{"ha":303,"x_min":0,"x_max":0,"o":"m 69 182 b 14 132 69 139 29 132 l 14 0 b 111 -8 46 -7 79 -8 b 268 186 208 -8 268 51 l 268 1131 l 69 1131 z m 225 1203 l 390 1203 l 243 1375 l 72 1375 l -86 1203 l 86 1203 l 157 1282 z "},"ħ":{"ha":492,"x_min":0,"x_max":0,"o":"m 0 1063 l 0 1000 l 35 1000 l 35 0 l 217 0 l 217 739 b 246 775 217 763 231 775 b 274 739 261 775 274 763 l 274 0 l 457 0 l 457 743 b 322 913 457 882 399 913 b 217 868 290 913 246 897 l 217 1000 l 451 1000 l 451 1063 l 217 1063 l 217 1131 l 35 1131 l 35 1063 z "},"ĥ":{"ha":492,"x_min":0,"x_max":0,"o":"m 217 739 b 246 775 217 763 231 775 b 274 739 261 775 274 763 l 274 0 l 457 0 l 457 743 b 322 913 457 882 399 913 b 217 868 290 913 246 897 l 217 1131 l 35 1131 l 35 0 l 217 0 z m 200 1200 l 365 1200 l 218 1372 l 47 1372 l -111 1200 l 61 1200 l 132 1279 z "},"ş":{"ha":464,"x_min":0,"x_max":0,"o":"m 213 -117 b 265 -157 244 -117 265 -131 b 231 -193 265 -181 251 -193 b 197 -168 213 -193 204 -182 l 107 -168 b 228 -264 125 -232 174 -264 b 357 -150 301 -264 357 -210 b 269 -69 357 -106 325 -72 l 269 -8 l 286 -8 b 443 172 396 -8 443 39 l 443 308 b 203 640 443 518 203 513 l 203 743 b 232 778 203 765 217 778 b 260 743 247 778 260 765 l 260 601 l 436 601 l 436 728 b 275 907 436 857 390 907 l 178 907 b 21 728 68 907 21 861 l 21 607 b 260 286 21 419 260 418 l 260 157 b 231 122 260 135 246 122 b 203 157 215 122 203 135 l 203 326 l 28 326 l 28 172 b 188 -8 28 43 74 -8 l 197 -8 l 197 -117 z "},"ğ":{"ha":492,"x_min":0,"x_max":0,"o":"m 274 -43 b 244 -78 274 -65 260 -78 b 217 -60 226 -78 217 -74 l 49 -60 b 192 -208 49 -157 76 -208 l 310 -208 b 457 -28 419 -208 457 -162 l 457 900 l 289 900 l 274 863 b 168 907 244 892 200 907 b 35 738 92 907 35 876 l 35 157 b 168 -12 35 18 92 -12 b 274 32 200 -12 244 3 z m 274 161 b 244 125 274 138 260 125 b 217 161 229 125 217 138 l 217 735 b 244 769 217 758 229 769 b 274 735 260 769 274 758 z m 72 1157 b 244 972 81 1035 143 972 b 418 1157 346 972 410 1035 l 315 1157 b 244 1072 308 1110 294 1072 b 176 1157 194 1072 182 1110 z "},"ĵ":{"ha":251,"x_min":0,"x_max":0,"o":"m 35 -207 l 217 -207 l 217 900 l 35 900 z m 199 972 l 364 972 l 217 1144 l 46 1144 l -112 972 l 60 972 l 131 1051 z "},"Ċ":{"ha":514,"x_min":0,"x_max":0,"o":"m 296 168 b 264 133 296 146 279 133 b 232 168 249 133 232 146 l 232 965 b 265 1001 232 989 250 1001 b 296 965 281 1001 296 989 l 296 764 l 486 764 l 486 965 b 318 1146 486 1096 433 1146 l 190 1146 b 35 965 81 1146 35 1100 l 35 168 b 201 -12 35 39 88 -12 l 331 -12 b 486 168 440 -12 486 33 l 486 410 l 296 410 z m 179 1361 l 179 1203 l 335 1203 l 335 1361 z "},"Ĉ":{"ha":514,"x_min":0,"x_max":0,"o":"m 296 168 b 264 133 296 146 279 133 b 232 168 249 133 232 146 l 232 965 b 265 1001 232 989 250 1001 b 296 965 281 1001 296 989 l 296 764 l 486 764 l 486 965 b 318 1146 486 1096 433 1146 l 190 1146 b 35 965 81 1146 35 1100 l 35 168 b 201 -12 35 39 88 -12 l 331 -12 b 486 168 440 -12 486 33 l 486 410 l 296 410 z m 329 1203 l 494 1203 l 347 1375 l 176 1375 l 18 1203 l 190 1203 l 261 1282 z "},"Ġ":{"ha":522,"x_min":0,"x_max":0,"o":"m 494 558 l 261 558 l 261 404 l 296 404 l 296 168 b 264 133 296 146 279 133 b 232 168 249 133 232 146 l 232 965 b 265 1001 232 989 250 1001 b 296 965 281 1001 296 989 l 296 764 l 486 764 l 486 965 b 318 1146 486 1096 433 1146 l 190 1146 b 35 965 81 1146 35 1100 l 35 168 b 201 -12 35 39 88 -12 l 338 -12 b 494 168 449 -12 494 33 z m 183 1361 l 183 1203 l 339 1203 l 339 1361 z "},"Ĝ":{"ha":522,"x_min":0,"x_max":0,"o":"m 494 558 l 261 558 l 261 404 l 296 404 l 296 168 b 264 133 296 146 279 133 b 232 168 249 133 232 146 l 232 965 b 265 1001 232 989 250 1001 b 296 965 281 1001 296 989 l 296 764 l 486 764 l 486 965 b 318 1146 486 1096 433 1146 l 190 1146 b 35 965 81 1146 35 1100 l 35 168 b 201 -12 35 39 88 -12 l 338 -12 b 494 168 449 -12 494 33 z m 333 1203 l 499 1203 l 351 1375 l 181 1375 l 22 1203 l 194 1203 l 265 1282 z "},"Ŭ":{"ha":529,"x_min":0,"x_max":0,"o":"m 296 168 b 264 133 296 146 279 133 b 232 168 249 133 232 146 l 232 1131 l 35 1131 l 35 168 b 201 -12 35 39 88 -12 l 338 -12 b 494 168 449 -12 494 33 l 494 1131 l 296 1131 z m 92 1388 b 264 1203 100 1265 163 1203 b 438 1388 365 1203 429 1265 l 335 1388 b 264 1303 328 1340 314 1303 b 196 1388 214 1303 201 1340 z "},"Ŝ":{"ha":519,"x_min":0,"x_max":0,"o":"m 293 167 b 261 132 293 144 279 132 b 231 167 243 132 231 144 l 231 404 l 42 404 l 42 168 b 201 -12 42 39 88 -12 l 328 -12 b 485 168 438 -12 485 35 l 485 403 b 231 788 485 613 231 660 l 231 968 b 263 1003 231 990 244 1003 b 293 968 279 1003 293 990 l 293 763 l 478 763 l 478 967 b 317 1146 478 1096 432 1146 l 192 1146 b 35 967 82 1146 35 1100 l 35 754 b 293 364 35 567 293 496 z m 332 1203 l 497 1203 l 350 1375 l 179 1375 l 21 1203 l 193 1203 l 264 1282 z "},"ċ":{"ha":478,"x_min":0,"x_max":0,"o":"m 274 161 b 244 125 274 138 260 125 b 217 161 229 125 217 138 l 217 743 b 246 778 217 765 231 778 b 274 743 261 778 274 765 l 274 596 l 450 596 l 450 728 b 289 907 450 857 404 907 l 190 907 b 35 728 81 907 35 861 l 35 176 b 201 -4 35 46 88 -4 l 301 -4 b 450 176 411 -4 450 42 l 450 335 l 274 335 z m 161 1131 l 161 972 l 317 972 l 317 1131 z "},"ĉ":{"ha":478,"x_min":0,"x_max":0,"o":"m 274 161 b 244 125 274 138 260 125 b 217 161 229 125 217 138 l 217 743 b 246 778 217 765 231 778 b 274 743 261 778 274 765 l 274 596 l 450 596 l 450 728 b 289 907 450 857 404 907 l 190 907 b 35 728 81 907 35 861 l 35 176 b 201 -4 35 46 88 -4 l 301 -4 b 450 176 411 -4 450 42 l 450 335 l 274 335 z m 311 972 l 476 972 l 329 1144 l 158 1144 l 0 972 l 172 972 l 243 1051 z "},"ġ":{"ha":492,"x_min":0,"x_max":0,"o":"m 274 -43 b 244 -78 274 -65 260 -78 b 217 -60 226 -78 217 -74 l 49 -60 b 192 -208 49 -157 76 -208 l 310 -208 b 457 -28 419 -208 457 -162 l 457 900 l 289 900 l 274 863 b 168 907 244 892 200 907 b 35 738 92 907 35 876 l 35 157 b 168 -12 35 18 92 -12 b 274 32 200 -12 244 3 z m 274 161 b 244 125 274 138 260 125 b 217 161 229 125 217 138 l 217 735 b 244 769 217 758 229 769 b 274 735 260 769 274 758 z m 168 1131 l 168 972 l 324 972 l 324 1131 z "},"ĝ":{"ha":492,"x_min":0,"x_max":0,"o":"m 274 -43 b 244 -78 274 -65 260 -78 b 217 -60 226 -78 217 -74 l 49 -60 b 192 -208 49 -157 76 -208 l 310 -208 b 457 -28 419 -208 457 -162 l 457 900 l 289 900 l 274 863 b 168 907 244 892 200 907 b 35 738 92 907 35 876 l 35 157 b 168 -12 35 18 92 -12 b 274 32 200 -12 244 3 z m 274 161 b 244 125 274 138 260 125 b 217 161 229 125 217 138 l 217 735 b 244 769 217 758 229 769 b 274 735 260 769 274 758 z m 318 972 l 483 972 l 336 1144 l 165 1144 l 7 972 l 179 972 l 250 1051 z "},"ŭ":{"ha":492,"x_min":0,"x_max":0,"o":"m 274 161 b 244 125 274 138 260 125 b 217 161 229 125 217 138 l 217 900 l 35 900 l 35 157 b 168 -12 35 18 92 -12 b 276 29 200 -12 249 0 l 290 0 l 457 0 l 457 900 l 274 900 z m 72 1157 b 244 972 81 1035 143 972 b 418 1157 346 972 410 1035 l 315 1157 b 244 1072 308 1110 294 1072 b 176 1157 194 1072 182 1110 z "},"ŝ":{"ha":464,"x_min":0,"x_max":0,"o":"m 260 157 b 231 122 260 135 246 122 b 203 157 215 122 203 135 l 203 326 l 28 326 l 28 172 b 188 -8 28 43 74 -8 l 286 -8 b 443 172 396 -8 443 39 l 443 308 b 203 640 443 518 203 513 l 203 743 b 232 778 203 765 217 778 b 260 743 247 778 260 765 l 260 601 l 436 601 l 436 728 b 275 907 436 857 390 907 l 178 907 b 21 728 68 907 21 861 l 21 607 b 260 286 21 419 260 418 z m 304 972 l 469 972 l 322 1144 l 151 1144 l -7 972 l 165 972 l 236 1051 z "},"ȷ":{"ha":251,"x_min":0,"x_max":0,"o":"m 35 -207 l 217 -207 l 217 900 l 35 900 z "},"ĸ":{"ha":483,"x_min":0,"x_max":0,"o":"m 35 0 l 217 0 l 217 428 l 292 0 l 476 0 l 381 475 l 460 900 l 283 900 l 217 515 l 217 900 l 35 900 z "},"Ŗ":{"ha":533,"x_min":0,"x_max":0,"o":"m 494 346 b 385 522 494 458 461 510 b 494 700 461 536 494 586 l 494 950 b 326 1131 494 1081 440 1131 l 35 1131 l 35 0 l 232 0 l 232 447 l 264 447 b 296 413 279 447 296 435 l 296 0 l 494 0 z m 296 629 b 264 594 296 607 279 594 l 232 594 l 232 986 l 265 986 b 296 950 281 986 296 974 z m 357 -97 l 175 -97 l 175 -265 l 251 -265 l 203 -460 l 357 -265 z "},"Ĩ":{"ha":267,"x_min":0,"x_max":0,"o":"m 35 0 l 232 0 l 232 1131 l 35 1131 z m 226 1333 b 161 1351 206 1333 183 1342 l 124 1365 b 32 1385 96 1375 67 1385 b -124 1267 -33 1385 -79 1342 l -28 1203 b 47 1264 -10 1238 14 1264 b 113 1246 68 1264 93 1254 l 157 1228 b 247 1207 188 1215 224 1207 b 392 1318 303 1207 354 1242 l 293 1389 b 226 1333 282 1354 261 1333 z "},"Ļ":{"ha":389,"x_min":0,"x_max":0,"o":"m 35 0 l 375 0 l 375 153 l 232 153 l 232 1131 l 35 1131 z m 285 -97 l 103 -97 l 103 -265 l 179 -265 l 131 -460 l 285 -265 z "},"ŋ":{"ha":492,"x_min":0,"x_max":0,"o":"m 217 739 b 246 775 217 763 231 775 b 274 739 261 775 274 763 l 274 -208 l 457 -208 l 457 743 b 322 913 457 882 399 913 b 214 871 290 913 243 900 l 199 900 l 35 900 l 35 0 l 217 0 z "},"Ŋ":{"ha":578,"x_min":0,"x_max":0,"o":"m 331 0 l 360 0 l 360 -25 b 304 -75 360 -68 319 -75 l 304 -207 b 394 -215 336 -214 363 -215 b 543 -21 492 -215 543 -156 l 543 1131 l 360 1131 l 360 524 l 239 1131 l 35 1131 l 35 0 l 213 0 l 213 604 z "},"ŧ":{"ha":322,"x_min":0,"x_max":0,"o":"m 0 674 l 0 569 l 60 569 l 60 164 b 167 0 60 58 75 0 l 308 0 l 308 125 l 271 125 b 243 161 256 125 243 138 l 243 569 l 322 569 l 322 674 l 243 674 l 243 775 l 306 775 l 306 900 l 243 900 l 243 1021 l 60 1021 l 60 900 l 14 900 l 14 775 l 60 775 l 60 674 z "},"ģ":{"ha":492,"x_min":0,"x_max":0,"o":"m 274 -43 b 244 -78 274 -65 260 -78 b 217 -60 226 -78 217 -74 l 49 -60 b 192 -208 49 -157 76 -208 l 310 -208 b 457 -28 419 -208 457 -162 l 457 900 l 289 900 l 274 863 b 168 907 244 892 200 907 b 35 738 92 907 35 876 l 35 157 b 168 -12 35 18 92 -12 b 274 32 200 -12 244 3 z m 274 161 b 244 125 274 138 260 125 b 217 161 229 125 217 138 l 217 735 b 244 769 217 758 229 769 b 274 735 260 769 274 758 z m 154 999 l 336 999 l 336 1167 l 260 1167 l 308 1361 l 154 1167 z "},"ē":{"ha":483,"x_min":0,"x_max":0,"o":"m 272 161 b 243 125 272 138 258 125 b 215 161 228 125 215 138 l 215 414 l 449 414 l 449 728 b 281 907 449 857 394 907 l 190 907 b 35 728 81 907 35 861 l 35 176 b 201 -4 35 46 88 -4 l 300 -4 b 449 176 410 -4 449 42 l 449 335 l 272 335 z m 215 743 b 244 778 215 765 229 778 b 272 743 260 778 272 765 l 272 529 l 215 529 z m -1 1076 l -1 972 l 485 972 l 485 1076 z "},"Ņ":{"ha":578,"x_min":0,"x_max":0,"o":"m 331 0 l 543 0 l 543 1131 l 360 1131 l 360 524 l 239 1131 l 35 1131 l 35 0 l 213 0 l 213 604 z m 379 -97 l 197 -97 l 197 -265 l 274 -265 l 225 -460 l 379 -265 z "},"Ō":{"ha":529,"x_min":0,"x_max":0,"o":"m 494 965 b 326 1146 494 1096 440 1146 l 190 1146 b 35 965 81 1146 35 1100 l 35 168 b 201 -12 35 39 88 -12 l 338 -12 b 494 168 449 -12 494 33 z m 296 168 b 264 133 296 146 279 133 b 232 168 249 133 232 146 l 232 965 b 265 1001 232 989 250 1001 b 296 965 281 1001 296 989 z m 21 1307 l 21 1203 l 507 1203 l 507 1307 z "},"Ķ":{"ha":561,"x_min":0,"x_max":0,"o":"m 511 1131 l 318 1131 l 232 646 l 232 1131 l 35 1131 l 35 0 l 232 0 l 232 533 l 351 0 l 554 0 l 408 585 z m 371 -97 l 189 -97 l 189 -265 l 265 -265 l 217 -460 l 371 -265 z "},"į":{"ha":251,"x_min":0,"x_max":0,"o":"m 35 0 l 92 0 b 40 -99 61 -29 40 -58 b 163 -194 40 -154 86 -194 b 268 -167 213 -194 243 -178 l 243 -106 b 174 -121 225 -112 201 -121 b 129 -82 144 -121 129 -106 b 181 0 129 -57 150 -31 l 217 0 l 217 900 l 35 900 z m 217 1131 l 35 1131 l 35 963 l 217 963 z "},"ė":{"ha":483,"x_min":0,"x_max":0,"o":"m 272 161 b 243 125 272 138 258 125 b 215 161 228 125 215 138 l 215 414 l 449 414 l 449 728 b 281 907 449 857 394 907 l 190 907 b 35 728 81 907 35 861 l 35 176 b 201 -4 35 46 88 -4 l 300 -4 b 449 176 410 -4 449 42 l 449 335 l 272 335 z m 215 743 b 244 778 215 765 229 778 b 272 743 260 778 272 765 l 272 529 l 215 529 z m 164 1131 l 164 972 l 319 972 l 319 1131 z "},"ī":{"ha":251,"x_min":0,"x_max":0,"o":"m 35 0 l 217 0 l 217 900 l 35 900 z m -117 1076 l -117 972 l 369 972 l 369 1076 z "},"ũ":{"ha":492,"x_min":0,"x_max":0,"o":"m 274 161 b 244 125 274 138 260 125 b 217 161 229 125 217 138 l 217 900 l 35 900 l 35 157 b 168 -12 35 18 92 -12 b 276 29 200 -12 249 0 l 290 0 l 457 0 l 457 900 l 274 900 z m 338 1103 b 272 1121 317 1103 294 1111 l 235 1135 b 143 1154 207 1144 178 1154 b -12 1036 78 1154 32 1111 l 83 972 b 158 1033 101 1007 125 1033 b 224 1015 179 1033 204 1024 l 268 997 b 358 976 299 985 335 976 b 503 1088 414 976 465 1011 l 404 1158 b 338 1103 393 1124 372 1103 z "},"ū":{"ha":492,"x_min":0,"x_max":0,"o":"m 274 161 b 244 125 274 138 260 125 b 217 161 229 125 217 138 l 217 900 l 35 900 l 35 157 b 168 -12 35 18 92 -12 b 276 29 200 -12 249 0 l 290 0 l 457 0 l 457 900 l 274 900 z m 3 1076 l 3 972 l 489 972 l 489 1076 z "},"ų":{"ha":492,"x_min":0,"x_max":0,"o":"m 442 -106 b 372 -121 424 -112 400 -121 b 328 -82 343 -121 328 -106 b 379 0 328 -57 349 -31 l 457 0 l 457 900 l 274 900 l 274 161 b 244 125 274 138 260 125 b 217 161 229 125 217 138 l 217 900 l 35 900 l 35 157 b 168 -12 35 18 92 -12 b 276 29 200 -12 249 0 l 290 0 b 239 -99 260 -29 239 -58 b 361 -194 239 -154 285 -194 b 467 -167 411 -194 442 -178 z "},"ā":{"ha":486,"x_min":0,"x_max":0,"o":"m 451 0 l 451 728 b 301 907 451 861 411 907 l 196 907 b 36 728 82 907 36 857 l 36 601 l 211 601 l 211 743 b 239 778 211 765 224 778 b 268 743 254 778 268 765 l 268 549 b 28 368 139 529 28 517 l 28 157 b 163 -12 28 18 86 -12 b 271 29 194 -12 242 0 l 285 0 z m 211 385 b 268 421 211 408 233 419 l 268 161 b 239 125 268 138 254 125 b 211 161 224 125 211 138 z m 0 1076 l 0 972 l 486 972 l 486 1076 z "},"Ė":{"ha":401,"x_min":0,"x_max":0,"o":"m 381 153 l 232 153 l 232 499 l 367 499 l 367 651 l 232 651 l 232 978 l 381 978 l 381 1131 l 35 1131 l 35 0 l 381 0 z m 124 1361 l 124 1203 l 279 1203 l 279 1361 z "},"ĩ":{"ha":251,"x_min":0,"x_max":0,"o":"m 35 0 l 217 0 l 217 900 l 35 900 z m 218 1103 b 153 1121 197 1103 175 1111 l 115 1135 b 24 1154 88 1144 58 1154 b -132 1036 -42 1154 -87 1111 l -36 972 b 39 1033 -18 1007 6 1033 b 104 1015 60 1033 85 1024 l 149 997 b 239 976 179 985 215 976 b 383 1088 294 976 346 1011 l 285 1158 b 218 1103 274 1124 253 1103 z "},"ļ":{"ha":251,"x_min":0,"x_max":0,"o":"m 35 0 l 217 0 l 217 1131 l 35 1131 z m 217 -97 l 35 -97 l 35 -265 l 111 -265 l 63 -460 l 217 -265 z "},"ŗ":{"ha":471,"x_min":0,"x_max":0,"o":"m 217 739 b 246 775 217 763 231 775 b 274 739 261 775 274 763 l 274 535 l 450 535 l 450 743 b 322 913 450 882 399 913 b 214 871 290 913 253 900 l 200 900 l 35 900 l 35 0 l 217 0 z m 326 -97 l 144 -97 l 144 -265 l 221 -265 l 172 -460 l 326 -265 z "},"Ē":{"ha":401,"x_min":0,"x_max":0,"o":"m 381 153 l 232 153 l 232 499 l 367 499 l 367 651 l 232 651 l 232 978 l 381 978 l 381 1131 l 35 1131 l 35 0 l 381 0 z m -42 1307 l -42 1203 l 444 1203 l 444 1307 z "},"Ģ":{"ha":522,"x_min":0,"x_max":0,"o":"m 494 558 l 261 558 l 261 404 l 296 404 l 296 168 b 264 133 296 146 279 133 b 232 168 249 133 232 146 l 232 965 b 265 1001 232 989 250 1001 b 296 965 281 1001 296 989 l 296 764 l 486 764 l 486 965 b 318 1146 486 1096 433 1146 l 190 1146 b 35 965 81 1146 35 1100 l 35 168 b 201 -12 35 39 88 -12 l 338 -12 b 494 168 449 -12 494 33 z m 351 -97 l 169 -97 l 169 -265 l 246 -265 l 197 -460 l 351 -265 z "},"Ŧ":{"ha":443,"x_min":0,"x_max":0,"o":"m 0 817 l 0 713 l 122 713 l 122 0 l 321 0 l 321 713 l 443 713 l 443 817 l 321 817 l 321 978 l 429 978 l 429 1131 l 14 1131 l 14 978 l 122 978 l 122 817 z "},"Į":{"ha":267,"x_min":0,"x_max":0,"o":"m 35 0 l 88 0 b 36 -99 57 -29 36 -58 b 158 -194 36 -154 82 -194 b 264 -167 208 -194 239 -178 l 239 -106 b 169 -121 221 -112 197 -121 b 125 -82 140 -121 125 -106 b 176 0 125 -57 146 -31 l 232 0 l 232 1131 l 35 1131 z "},"Ũ":{"ha":529,"x_min":0,"x_max":0,"o":"m 296 168 b 264 133 296 146 279 133 b 232 168 249 133 232 146 l 232 1131 l 35 1131 l 35 168 b 201 -12 35 39 88 -12 l 338 -12 b 494 168 449 -12 494 33 l 494 1131 l 296 1131 z m 357 1333 b 292 1351 336 1333 314 1342 l 254 1365 b 163 1385 226 1375 197 1385 b 7 1267 97 1385 51 1342 l 103 1203 b 178 1264 121 1238 144 1264 b 243 1246 199 1264 224 1254 l 288 1228 b 378 1207 318 1215 354 1207 b 522 1318 433 1207 485 1242 l 424 1389 b 357 1333 413 1354 392 1333 z "},"Ū":{"ha":529,"x_min":0,"x_max":0,"o":"m 296 168 b 264 133 296 146 279 133 b 232 168 249 133 232 146 l 232 1131 l 35 1131 l 35 168 b 201 -12 35 39 88 -12 l 338 -12 b 494 168 449 -12 494 33 l 494 1131 l 296 1131 z m 21 1307 l 21 1203 l 507 1203 l 507 1307 z "},"ņ":{"ha":492,"x_min":0,"x_max":0,"o":"m 217 739 b 246 775 217 763 231 775 b 274 739 261 775 274 763 l 274 0 l 457 0 l 457 743 b 322 913 457 882 399 913 b 214 871 290 913 243 900 l 199 900 l 35 900 l 35 0 l 217 0 z m 336 -97 l 154 -97 l 154 -265 l 231 -265 l 182 -460 l 336 -265 z "},"ō":{"ha":492,"x_min":0,"x_max":0,"o":"m 457 728 b 289 907 457 857 404 907 l 190 907 b 35 728 81 907 35 861 l 35 176 b 201 -4 35 46 88 -4 l 301 -4 b 457 176 411 -4 457 42 z m 274 161 b 244 125 274 138 260 125 b 217 161 229 125 217 138 l 217 743 b 246 778 217 765 231 778 b 274 743 261 778 274 765 z m 3 1076 l 3 972 l 489 972 l 489 1076 z "},"ķ":{"ha":483,"x_min":0,"x_max":0,"o":"m 35 0 l 217 0 l 217 428 l 292 0 l 476 0 l 381 475 l 460 900 l 283 900 l 217 515 l 217 1131 l 35 1131 z m 332 -97 l 150 -97 l 150 -265 l 226 -265 l 178 -460 l 332 -265 z "},"Ų":{"ha":529,"x_min":0,"x_max":0,"o":"m 413 -106 b 343 -121 394 -112 371 -121 b 299 -82 314 -121 299 -106 b 339 -12 299 -61 314 -37 b 494 168 449 -11 494 33 l 494 1131 l 296 1131 l 296 168 b 264 133 296 146 279 133 b 232 168 249 133 232 146 l 232 1131 l 35 1131 l 35 168 b 201 -12 35 39 88 -12 l 249 -12 b 210 -99 225 -37 210 -64 b 332 -194 210 -154 256 -194 b 438 -167 382 -194 413 -178 z "},"Ā":{"ha":533,"x_min":0,"x_max":0,"o":"m 7 0 l 197 0 l 218 285 l 315 285 l 338 0 l 526 0 l 418 1131 l 119 1131 z m 267 936 l 304 438 l 229 438 z m 24 1307 l 24 1203 l 510 1203 l 510 1307 z "},"ŷ":{"ha":457,"x_min":0,"x_max":0,"o":"m 113 0 l 193 0 l 172 -208 l 325 -208 l 450 900 l 275 900 l 229 224 l 183 900 l 7 900 z m 301 972 l 467 972 l 319 1144 l 149 1144 l -10 972 l 163 972 l 233 1051 z "},"ṫ":{"ha":322,"x_min":0,"x_max":0,"o":"m 14 775 l 60 775 l 60 164 b 167 0 60 58 75 0 l 308 0 l 308 125 l 271 125 b 243 161 256 125 243 138 l 243 775 l 306 775 l 306 900 l 243 900 l 243 1021 l 60 1021 l 60 900 l 14 900 z m 74 1269 l 74 1111 l 229 1111 l 229 1269 z "},"Ḃ":{"ha":540,"x_min":0,"x_max":0,"o":"m 494 410 b 385 586 494 522 461 574 b 494 764 461 600 494 650 l 494 950 b 326 1131 494 1081 440 1131 l 35 1131 l 35 0 l 326 0 b 494 181 440 0 494 50 z m 296 181 b 265 144 296 157 281 144 l 232 144 l 232 511 l 264 511 b 296 476 279 511 296 499 z m 296 693 b 264 658 296 671 279 658 l 232 658 l 232 986 l 265 986 b 296 950 281 986 296 974 z m 164 1361 l 164 1203 l 319 1203 l 319 1361 z "},"ḃ":{"ha":492,"x_min":0,"x_max":0,"o":"m 457 743 b 322 913 457 882 399 913 b 217 868 290 913 246 897 l 217 1131 l 35 1131 l 35 0 l 201 0 l 217 36 b 322 -8 246 7 290 -8 b 457 163 399 -8 457 22 z m 217 739 b 246 775 217 763 231 775 b 274 739 261 775 274 763 l 274 165 b 246 131 274 142 261 131 b 217 165 231 131 217 142 z m 279 1131 l 279 972 l 435 972 l 435 1131 z "},"Ḋ":{"ha":535,"x_min":0,"x_max":0,"o":"m 494 950 b 326 1131 494 1081 440 1131 l 35 1131 l 35 0 l 338 0 b 494 181 449 0 494 46 z m 296 181 b 264 146 296 158 279 146 l 232 146 l 232 986 l 265 986 b 296 950 281 986 296 974 z m 161 1361 l 161 1203 l 317 1203 l 317 1361 z "},"Ṗ":{"ha":522,"x_min":0,"x_max":0,"o":"m 494 589 l 494 950 b 326 1131 494 1081 440 1131 l 35 1131 l 35 0 l 232 0 l 232 419 b 494 589 444 419 494 443 z m 296 601 b 264 567 296 579 279 567 l 232 567 l 232 986 l 265 986 b 296 950 281 986 296 974 z m 183 1361 l 183 1203 l 339 1203 l 339 1361 z "},"ẁ":{"ha":725,"x_min":0,"x_max":0,"o":"m 718 900 l 543 900 l 507 310 l 472 900 l 254 900 l 218 310 l 183 900 l 7 900 l 113 0 l 326 0 l 363 644 l 399 0 l 613 0 z m 353 972 l 476 972 l 369 1136 l 151 1136 z "},"ṗ":{"ha":492,"x_min":0,"x_max":0,"o":"m 457 738 b 322 907 457 876 399 907 b 217 863 290 907 246 892 l 201 900 l 35 900 l 35 -208 l 217 -208 l 217 32 b 322 -12 246 3 290 -12 b 457 157 399 -12 457 18 z m 217 735 b 246 769 217 758 231 769 b 274 735 261 769 274 758 l 274 161 b 246 125 274 138 261 125 b 217 161 231 125 217 138 z m 168 1131 l 168 972 l 324 972 l 324 1131 z "},"ẃ":{"ha":725,"x_min":0,"x_max":0,"o":"m 718 900 l 543 900 l 507 310 l 472 900 l 254 900 l 218 310 l 183 900 l 7 900 l 113 0 l 326 0 l 363 644 l 399 0 l 613 0 z m 396 1136 l 289 972 l 413 972 l 614 1136 z "},"Ṡ":{"ha":519,"x_min":0,"x_max":0,"o":"m 293 167 b 261 132 293 144 279 132 b 231 167 243 132 231 144 l 231 404 l 42 404 l 42 168 b 201 -12 42 39 88 -12 l 328 -12 b 485 168 438 -12 485 35 l 485 403 b 231 788 485 613 231 660 l 231 968 b 263 1003 231 990 244 1003 b 293 968 279 1003 293 990 l 293 763 l 478 763 l 478 967 b 317 1146 478 1096 432 1146 l 192 1146 b 35 967 82 1146 35 1100 l 35 754 b 293 364 35 567 293 496 z m 182 1361 l 182 1203 l 338 1203 l 338 1361 z "},"ỳ":{"ha":457,"x_min":0,"x_max":0,"o":"m 113 0 l 193 0 l 172 -208 l 325 -208 l 450 900 l 275 900 l 229 224 l 183 900 l 7 900 z m 197 972 l 321 972 l 214 1136 l -4 1136 z "},"Ẅ":{"ha":811,"x_min":0,"x_max":0,"o":"m 804 1131 l 614 1131 l 575 313 l 522 1131 l 289 1131 l 236 313 l 197 1131 l 7 1131 l 92 0 l 346 0 l 406 838 l 465 0 l 719 0 z m 192 1361 l 192 1203 l 349 1203 l 349 1361 z m 457 1361 l 457 1203 l 617 1203 l 617 1361 z "},"ẅ":{"ha":725,"x_min":0,"x_max":0,"o":"m 718 900 l 543 900 l 507 310 l 472 900 l 254 900 l 218 310 l 183 900 l 7 900 l 113 0 l 326 0 l 363 644 l 399 0 l 613 0 z m 150 1131 l 150 972 l 307 972 l 307 1131 z m 415 1131 l 415 972 l 575 972 l 575 1131 z "},"ṡ":{"ha":464,"x_min":0,"x_max":0,"o":"m 260 157 b 231 122 260 135 246 122 b 203 157 215 122 203 135 l 203 326 l 28 326 l 28 172 b 188 -8 28 43 74 -8 l 286 -8 b 443 172 396 -8 443 39 l 443 308 b 203 640 443 518 203 513 l 203 743 b 232 778 203 765 217 778 b 260 743 247 778 260 765 l 260 601 l 436 601 l 436 728 b 275 907 436 857 390 907 l 178 907 b 21 728 68 907 21 861 l 21 607 b 260 286 21 419 260 418 z m 154 1131 l 154 972 l 310 972 l 310 1131 z "},"Ṫ":{"ha":443,"x_min":0,"x_max":0,"o":"m 122 0 l 321 0 l 321 978 l 429 978 l 429 1131 l 14 1131 l 14 978 l 122 978 z m 143 1361 l 143 1203 l 299 1203 l 299 1361 z "},"Ŵ":{"ha":811,"x_min":0,"x_max":0,"o":"m 804 1131 l 614 1131 l 575 313 l 522 1131 l 289 1131 l 236 313 l 197 1131 l 7 1131 l 92 0 l 346 0 l 406 838 l 465 0 l 719 0 z m 478 1203 l 643 1203 l 496 1375 l 325 1375 l 167 1203 l 339 1203 l 410 1282 z "},"Ṁ":{"ha":707,"x_min":0,"x_max":0,"o":"m 490 664 l 490 0 l 672 0 l 672 1131 l 444 1131 l 353 582 l 263 1131 l 35 1131 l 35 0 l 217 0 l 217 664 l 311 0 l 397 0 z m 275 1361 l 275 1203 l 431 1203 l 431 1361 z "},"ṁ":{"ha":732,"x_min":0,"x_max":0,"o":"m 217 739 b 246 775 217 763 231 775 b 274 739 261 775 274 763 l 274 0 l 457 0 l 457 743 b 486 775 458 763 471 775 b 514 739 501 775 514 763 l 514 0 l 697 0 l 697 743 b 563 913 697 882 639 913 b 436 853 531 913 472 900 b 322 913 413 899 372 913 b 214 871 290 913 243 900 l 199 900 l 35 900 l 35 0 l 217 0 z m 288 1131 l 288 972 l 443 972 l 443 1131 z "},"Ḟ":{"ha":394,"x_min":0,"x_max":0,"o":"m 232 499 l 367 499 l 367 651 l 232 651 l 232 978 l 381 978 l 381 1131 l 35 1131 l 35 0 l 232 0 z m 119 1361 l 119 1203 l 275 1203 l 275 1361 z "},"ḟ":{"ha":322,"x_min":0,"x_max":0,"o":"m 14 775 l 60 775 l 60 0 l 243 0 l 243 775 l 306 775 l 306 900 l 243 900 l 243 969 b 271 1006 243 993 256 1006 l 308 1006 l 308 1131 l 197 1131 b 60 967 106 1131 60 1103 l 60 900 l 14 900 z m 113 1368 l 113 1210 l 268 1210 l 268 1368 z "},"Ŷ":{"ha":510,"x_min":0,"x_max":0,"o":"m 503 1131 l 317 1131 l 256 622 l 194 1131 l 7 1131 l 157 333 l 157 0 l 354 0 l 354 332 z m 328 1203 l 493 1203 l 346 1375 l 175 1375 l 17 1203 l 189 1203 l 260 1282 z "},"Ẃ":{"ha":811,"x_min":0,"x_max":0,"o":"m 804 1131 l 614 1131 l 575 313 l 522 1131 l 289 1131 l 236 313 l 197 1131 l 7 1131 l 92 0 l 346 0 l 406 838 l 465 0 l 719 0 z m 433 1367 l 326 1203 l 450 1203 l 651 1367 z "},"ḋ":{"ha":492,"x_min":0,"x_max":0,"o":"m 35 163 b 168 -8 35 22 92 -8 b 274 36 200 -8 244 7 l 289 0 l 457 0 l 457 1131 l 274 1131 l 274 868 b 168 913 244 897 200 913 b 35 743 92 913 35 882 z m 274 165 b 244 131 274 142 260 131 b 217 165 229 131 217 142 l 217 739 b 244 775 217 763 229 775 b 274 739 260 775 274 763 z m 58 1131 l 58 972 l 214 972 l 214 1131 z "},"Ỳ":{"ha":510,"x_min":0,"x_max":0,"o":"m 503 1131 l 317 1131 l 256 622 l 194 1131 l 7 1131 l 157 333 l 157 0 l 354 0 l 354 332 z m 242 1203 l 365 1203 l 258 1367 l 40 1367 z "},"ŵ":{"ha":725,"x_min":0,"x_max":0,"o":"m 718 900 l 543 900 l 507 310 l 472 900 l 254 900 l 218 310 l 183 900 l 7 900 l 113 0 l 326 0 l 363 644 l 399 0 l 613 0 z m 435 972 l 600 972 l 453 1144 l 282 1144 l 124 972 l 296 972 l 367 1051 z "},"Ẁ":{"ha":811,"x_min":0,"x_max":0,"o":"m 804 1131 l 614 1131 l 575 313 l 522 1131 l 289 1131 l 236 313 l 197 1131 l 7 1131 l 92 0 l 346 0 l 406 838 l 465 0 l 719 0 z m 397 1203 l 521 1203 l 414 1367 l 196 1367 z "},"A":{"ha":533,"x_min":0,"x_max":0,"o":"m 7 0 l 197 0 l 218 285 l 315 285 l 338 0 l 526 0 l 418 1131 l 119 1131 z m 267 936 l 304 438 l 229 438 z "}}}
